<svg viewBox="0 0 50 50" fill="none" xmlns="http://www.w3.org/2000/svg">
  <defs>
    <linearGradient id="emeraldTeal" x1="0%" y1="0%" x2="100%" y2="100%">
      <stop offset="0%" stop-color="#10B981" />
      <stop offset="100%" stop-color="#0F766E" />
    </linearGradient>
    <linearGradient id="textDark" x1="0%" y1="0%" x2="100%" y2="100%">
      <stop offset="0%" stop-color="#0F172A" />
      <stop offset="100%" stop-color="#334155" />
    </linearGradient>
    <filter id="logoGlow" x="-20%" y="-20%" width="140%" height="140%">
      <feGaussianBlur stdDeviation="2" result="blur" />
      <feComposite in="SourceGraphic" in2="blur" operator="over" />
    </filter>
  </defs>
  <g transform="translate(0.5, 1)">
    <g stroke="url(#textDark)" stroke-width="3" stroke-linejoin="round" stroke-linecap="round">
      <path d="M5 12 L18 6 L31 12 M5 42 L18 36 L31 42" />
      <path d="M5 12 V42 L18 36 V6 L31 12 V42" />
      <path d="M18 6 L31 12 L44 6 V36 L31 42 L18 36" fill="rgba(15, 23, 42, 0.08)" />
      <path d="M31 12 L44 6 M31 42 L44 36 M44 6 V36" />
    </g>
    <g filter="url(#logoGlow)">
      <circle cx="28" cy="24" r="11" fill="url(#emeraldTeal)" />
      <path d="M24 24.5 L27 27.5 L32 20.5" stroke="white" stroke-width="2.5" stroke-linecap="round" stroke-linejoin="round" />
    </g>
  </g>
</svg>
