<?xml version="1.0" standalone="no"?>
<!DOCTYPE svg PUBLIC "-//W3C//DTD SVG 20010904//EN"
 "http://www.w3.org/TR/2001/REC-SVG-20010904/DTD/svg10.dtd">
<svg version="1.0" xmlns="http://www.w3.org/2000/svg"
 width="1024.000000pt" height="1024.000000pt" viewBox="0 0 1024.000000 1024.000000"
 preserveAspectRatio="xMidYMid meet">

<g transform="translate(0.000000,1024.000000) scale(0.100000,-0.100000)"
fill="#000000" stroke="none">
<path d="M6067 8344 c-77 -18 -154 -56 -226 -110 -54 -40 -140 -138 -461 -519
-47 -56 -155 -184 -240 -286 -205 -243 -249 -297 -226 -279 10 8 68 72 129
143 60 70 112 126 114 123 3 -3 -32 -49 -76 -103 -45 -54 -90 -111 -101 -128
l-19 -30 54 1 c53 1 54 1 112 65 32 36 120 138 196 228 l138 162 567 -287
c312 -158 619 -313 682 -346 63 -33 107 -54 98 -46 -51 39 -105 73 -120 75
-10 2 -47 18 -82 35 l-64 33 17 37 c10 20 15 42 11 49 -5 7 -6 19 -3 26 4 11
8 12 13 3 10 -16 24 -7 50 33 l22 32 -26 -30 c-14 -16 -28 -26 -32 -22 -4 4
-2 7 4 7 7 0 12 11 12 24 0 14 5 28 10 31 6 3 10 12 10 18 0 7 -8 0 -18 -15
-17 -28 -32 -36 -32 -19 0 6 5 13 10 16 6 3 10 13 10 22 0 13 -5 12 -27 -8
-22 -20 -25 -21 -19 -5 5 16 4 17 -8 7 -11 -9 -20 -9 -34 -2 -11 6 -22 7 -26
3 -4 -3 -4 2 0 13 7 18 6 19 -11 5 -11 -9 -16 -10 -11 -2 4 7 2 12 -8 12 -24
0 -28 17 -11 50 16 31 53 39 47 10 -3 -11 0 -11 12 0 17 13 22 25 7 16 -5 -3
-14 1 -21 9 -10 13 -9 19 5 36 11 11 24 18 29 16 6 -2 20 5 31 16 20 20 20 20
-2 8 -30 -15 -65 -14 -91 5 -39 27 -22 91 33 123 18 11 18 11 -5 5 -14 -4 -28
-13 -33 -20 -27 -46 -77 -65 -116 -43 -38 21 -40 67 -5 102 43 43 102 35 134
-18 l12 -20 -7 20 c-4 11 -8 26 -8 33 0 6 -4 12 -9 12 -5 0 -3 10 3 23 7 12
14 44 15 70 2 40 0 46 -11 37 -8 -6 -11 -19 -8 -28 4 -14 3 -14 -5 -3 -7 10
-5 22 9 40 11 15 22 44 24 66 3 22 10 44 15 49 6 6 10 18 10 29 0 12 4 16 13
11 10 -6 10 -4 0 7 -16 16 -17 33 -2 23 16 -10 -6 29 -26 46 -14 12 -16 11
-10 -13 5 -19 3 -28 -8 -33 -9 -3 -14 -11 -11 -19 6 -15 -22 -28 -47 -20 -36
12 -13 60 41 88 10 5 8 6 -7 3 -12 -2 -24 1 -26 8 -3 6 -8 -1 -12 -16 -10 -38
-62 -71 -56 -35 0 4 -5 7 -13 7 -8 0 -17 4 -21 10 -7 12 28 47 43 42 6 -2 19
1 29 6 13 8 11 9 -14 8 -17 -2 -40 -12 -52 -23 -18 -16 -29 -19 -55 -13 -52
12 -62 21 -41 37 11 7 27 13 37 13 10 0 18 4 18 9 0 5 -6 8 -12 7 -7 0 -14 4
-15 9 -2 6 9 10 25 10 20 0 27 -5 26 -17 -1 -10 4 -18 11 -18 8 0 11 8 8 19
-3 10 1 22 8 27 8 5 11 3 7 -8 -4 -8 0 -15 8 -15 7 0 11 4 8 8 -2 4 5 24 15
43 19 33 19 36 3 45 -158 93 1028 -500 1705 -851 106 -55 212 -117 236 -139
90 -79 112 -208 53 -321 -14 -27 -95 -133 -179 -235 -173 -210 -303 -370 -633
-774 -258 -317 -470 -574 -596 -724 l-83 -100 -85 -2 c-58 -1 -75 1 -55 7 17
4 56 8 87 9 31 0 60 6 63 12 5 7 -20 8 -82 3 -118 -9 -101 11 22 25 l90 9 -91
-1 c-70 -2 -90 1 -87 11 5 11 44 15 161 17 17 0 32 4 32 9 0 5 -40 5 -90 2
-49 -4 -90 -4 -90 0 0 3 5 24 11 44 11 36 14 38 63 44 28 3 68 6 89 6 20 0 37
2 37 5 0 12 -68 111 -88 128 -19 18 -22 18 -44 3 -12 -9 -33 -16 -45 -16 -21
0 -23 -5 -23 -50 0 -38 -15 -89 -66 -215 -36 -91 -69 -165 -74 -165 -4 0 -15
21 -25 46 -9 25 -19 43 -22 40 -7 -6 28 -99 40 -107 5 -4 5 -9 -2 -13 -6 -4
-19 14 -32 44 -26 62 -34 60 -15 -3 15 -50 12 -64 -4 -22 -5 14 -13 25 -18 25
-5 0 -21 -31 -36 -68 -22 -58 -25 -73 -15 -100 10 -29 15 -32 54 -32 l44 0 -9
-30 c-5 -17 -8 -34 -7 -38 1 -4 -36 -13 -84 -21 l-85 -14 -18 -42 c-9 -23 -23
-51 -31 -61 -13 -17 -16 -17 -26 -4 -8 12 -10 10 -5 -10 3 -14 6 -29 6 -34 0
-5 23 -5 52 -2 49 7 51 6 37 -12 -8 -11 -169 -208 -358 -438 -190 -231 -380
-462 -423 -515 -83 -103 -116 -137 -106 -108 9 23 108 355 108 361 0 3 -30 -1
-67 -8 -91 -18 -90 -18 -98 13 -6 25 -8 26 -18 12 -10 -14 -14 -14 -25 -3 -6
7 -12 18 -12 23 0 5 -13 18 -29 27 -26 15 -28 20 -19 48 5 17 11 38 12 46 2
10 24 18 72 25 l69 10 22 70 c13 38 21 70 19 73 -2 2 -13 -6 -24 -18 -17 -18
-23 -20 -42 -10 -20 11 -110 7 -145 -6 -6 -3 -26 26 -46 65 -35 72 -49 87 -49
52 0 -11 -4 -22 -9 -26 -16 -9 -22 28 -11 65 6 19 10 35 10 36 0 0 -58 -9
-130 -21 l-129 -22 -38 85 -38 84 -37 -149 c-21 -81 -35 -161 -33 -177 3 -16
17 -55 31 -87 31 -68 23 -66 164 -44 52 8 96 13 98 11 1 -2 -6 -30 -17 -62
l-19 -58 46 -94 47 -94 43 5 c45 5 47 2 33 -36 -9 -22 -6 -27 20 -37 16 -7 43
-28 59 -47 37 -41 40 -90 8 -141 l-21 -35 72 7 c40 4 80 10 90 14 12 4 14 3 5
-9 -21 -28 -135 -169 -339 -419 -115 -140 -247 -302 -294 -360 -194 -237 -296
-300 -486 -300 -143 0 -44 -46 -1260 578 -456 233 -857 444 -890 467 -81 57
-119 124 -119 211 0 102 33 153 305 474 132 157 254 302 271 323 l30 37 -56
26 c-31 14 -60 24 -65 22 -8 -3 -221 -253 -442 -518 -173 -209 -202 -265 -201
-400 1 -196 48 -361 128 -450 71 -78 99 -94 1144 -628 894 -458 958 -488 1051
-508 155 -33 331 -4 466 78 96 58 175 141 419 440 131 161 436 536 679 833
242 297 580 711 750 920 332 409 782 960 1172 1437 161 198 241 302 237 313
-9 22 -27 18 -21 -5 7 -25 -7 -34 -23 -15 -7 8 -19 15 -26 15 -8 0 -14 5 -14
10 0 6 -11 16 -25 22 -19 9 -24 16 -19 32 4 12 -7 4 -27 -21 -19 -23 -85 -104
-148 -180 -63 -76 -142 -172 -175 -213 -33 -41 -115 -140 -181 -220 -67 -80
-186 -223 -264 -317 -78 -95 -145 -173 -148 -173 -3 0 15 24 39 53 25 28 94
113 154 187 59 74 187 232 284 350 97 118 319 390 493 603 465 569 440 540
449 517 11 -30 26 -183 19 -197 -3 -6 -86 -109 -184 -228 -99 -119 -177 -218
-174 -221 4 -4 103 115 392 471 110 135 158 211 146 234 -5 9 -14 52 -20 97
-11 75 -10 87 12 162 l23 82 13 -108 c17 -146 21 -155 16 -37 -9 182 -53 327
-127 410 -64 74 -102 95 -943 520 -258 131 -605 306 -770 390 -196 99 -323
158 -367 168 -82 21 -240 21 -321 1z m206 -1 c-7 -2 -19 -2 -25 0 -7 3 -2 5
12 5 14 0 19 -2 13 -5z m187 -43 c8 -5 11 -10 5 -10 -5 0 -17 5 -25 10 -8 5
-10 10 -5 10 6 0 17 -5 25 -10z m120 -55 c47 -24 81 -44 75 -44 -5 0 -48 20
-95 44 -47 24 -80 44 -75 44 6 0 48 -20 95 -44z m-235 -15 c13 -5 14 -9 5 -9
-8 0 -24 4 -35 9 -13 5 -14 9 -5 9 8 0 24 -4 35 -9z m596 -167 c103 -54 186
-99 185 -101 -4 -4 -146 67 -296 147 -52 28 -91 51 -86 51 5 0 93 -44 197 -97z
m-681 80 c-1 -9 -57 -73 -65 -73 -11 0 -4 28 9 40 8 6 12 18 9 26 -4 10 2 14
21 14 14 0 26 -3 26 -7z m-630 -167 c0 -2 -8 -10 -17 -17 -16 -13 -17 -12 -4
4 13 16 21 21 21 13z m1636 -84 c-5 -4 -66 26 -66 33 0 3 16 -3 35 -12 19 -9
33 -18 31 -21z m-1198 -19 c40 -20 80 -46 88 -57 30 -43 12 -95 -55 -160 -34
-33 -39 -36 -34 -16 4 14 2 21 -4 17 -6 -4 -8 12 -5 44 l5 50 -29 -29 c-34
-34 -144 -78 -154 -63 -12 20 6 120 25 144 11 13 2 4 -20 -19 -22 -24 -61 -54
-85 -67 -25 -14 -44 -30 -42 -37 1 -6 -2 -9 -8 -5 -16 10 -12 58 7 85 9 14 39
51 66 82 76 89 119 95 245 31z m1432 -98 c0 -3 -49 20 -110 50 -60 30 -110 57
-110 60 0 3 50 -20 110 -50 61 -30 110 -57 110 -60z m252 -124 c117 -61 209
-111 204 -111 -9 0 -437 218 -446 228 -12 12 40 -13 242 -117z m-1442 72 c0
-2 -16 -24 -35 -47 -19 -24 -35 -45 -35 -48 0 -3 11 -9 25 -12 27 -7 33 -24
11 -32 -20 -8 -88 36 -78 50 54 72 85 104 98 99 8 -3 14 -7 14 -10z m-940 -57
c0 -2 -8 -10 -17 -17 -16 -13 -17 -12 -4 4 13 16 21 21 21 13z m788 -131 l-4
-35 21 20 c34 32 39 23 9 -15 -33 -43 -44 -44 -44 -3 l0 31 -25 -23 c-33 -31
-32 -16 3 25 35 43 45 43 40 0z m1952 -70 c0 -3 -31 11 -70 30 -38 19 -70 38
-70 40 0 3 32 -11 70 -30 39 -19 70 -38 70 -40z m-1736 36 c-12 -12 -21 -14
-26 -8 -9 15 -3 22 22 24 22 2 22 1 4 -16z m-122 -5 c-1 -3 3 -12 10 -19 13
-14 36 -16 56 -3 13 8 32 0 32 -15 0 -5 -7 -9 -15 -9 -8 0 -20 -9 -27 -20 -15
-23 -33 -27 -24 -5 6 17 -9 21 -19 5 -9 -14 -26 -12 -24 3 1 6 1 19 0 27 -1
12 -4 12 -12 -2 -11 -20 -27 -22 -49 -8 -12 7 -12 12 0 34 10 20 19 25 44 22
17 -2 30 -6 28 -10z m128 -66 c13 -8 13 -12 1 -32 l-14 -23 22 19 c20 18 23
18 37 4 13 -12 14 -20 5 -37 -14 -24 -43 -28 -61 -6 -9 11 -17 12 -31 4 -13
-6 -25 -6 -39 1 -21 11 -27 30 -10 30 6 0 15 11 20 25 10 26 42 33 70 15z
m2043 -149 c32 -31 63 -65 69 -76 5 -11 -11 3 -36 31 -25 28 -70 68 -101 89
-30 21 -55 40 -55 42 0 13 74 -39 123 -86z m-1913 -15 c0 -2 -9 -6 -20 -9 -11
-3 -18 -1 -14 4 5 9 34 13 34 5z m1959 -438 c-17 -33 -112 -158 -117 -153 -4
3 119 175 126 175 1 0 -3 -10 -9 -22z m-14 -82 c-14 -21 -15 -36 -5 -108 6
-45 13 -90 16 -99 2 -9 -7 -31 -22 -49 -34 -40 -38 -33 -53 83 l-12 89 42 54
c43 56 61 72 34 30z m-125 -100 c0 -2 -8 -10 -17 -17 -16 -13 -17 -12 -4 4 13
16 21 21 21 13z m-57 -69 c-58 -73 -146 -177 -151 -177 -3 0 2 8 10 18 8 9 45
54 82 100 37 45 70 82 73 82 2 0 -4 -10 -14 -23z m-163 -200 c0 -2 -10 -12
-22 -23 l-23 -19 19 23 c18 21 26 27 26 19z m-40 -50 c0 -2 -10 -12 -22 -23
l-23 -19 19 23 c18 21 26 27 26 19z m-50 -60 c0 -2 -10 -12 -22 -23 l-23 -19
19 23 c18 21 26 27 26 19z m-120 -146 c-45 -55 -98 -117 -117 -138 -19 -21 5
12 53 72 48 61 98 122 112 138 51 55 31 25 -48 -72z m-190 -231 c-23 -27 -44
-50 -47 -50 -3 0 14 23 37 50 23 28 44 50 47 50 3 0 -14 -22 -37 -50z m-110
-135 c-34 -41 -64 -75 -66 -75 -3 0 22 34 56 75 34 41 64 75 66 75 3 0 -22
-34 -56 -75z m-70 -88 c0 -2 -10 -12 -22 -23 l-23 -19 19 23 c18 21 26 27 26
19z m-110 -132 c-33 -41 -66 -78 -73 -82 -11 -7 53 75 102 130 48 53 32 26
-29 -48z m190 29 c0 -9 -5 -14 -12 -12 -11 4 -245 -268 -377 -439 -35 -46 -68
-83 -73 -83 -11 0 62 92 386 487 51 61 76 77 76 47z m-270 -127 c0 -2 -10 -12
-22 -23 l-23 -19 19 23 c18 21 26 27 26 19z m-50 -61 c0 -2 -8 -10 -17 -17
-16 -13 -17 -12 -4 4 13 16 21 21 21 13z m-95 -115 c-26 -33 -56 -68 -68 -78
-12 -10 7 17 42 60 75 90 93 104 26 18z m-121 -146 c-20 -25 -39 -45 -42 -45
-5 0 8 17 52 68 35 40 28 23 -10 -23z m-104 -130 c-33 -41 -66 -78 -73 -82
-12 -7 55 78 102 130 47 51 32 27 -29 -48z m-117 44 c-5 -5 -41 -9 -79 -7
l-69 3 75 10 c80 12 90 11 73 -6z m-34 -33 c-10 -10 -59 -14 -59 -5 0 5 14 9
32 9 17 0 29 -2 27 -4z m-76 -13 c-7 -2 -21 -2 -30 0 -10 3 -4 5 12 5 17 0 24
-2 18 -5z m25 -40 c-10 -2 -26 -2 -35 0 -10 3 -2 5 17 5 19 0 27 -2 18 -5z
m122 -57 c0 -2 -8 -10 -17 -17 -16 -13 -17 -12 -4 4 13 16 21 21 21 13z m-163
-12 c-3 -3 -12 -4 -19 -1 -8 3 -5 6 6 6 11 1 17 -2 13 -5z m203 3 c0 -2 -10
-12 -22 -23 l-23 -19 19 23 c18 21 26 27 26 19z m-102 -64 c-8 -10 -56 -69
-107 -130 -51 -62 -95 -113 -98 -113 -2 0 26 37 63 83 38 45 86 103 107 130
21 26 41 47 44 47 4 0 -1 -8 -9 -17z m52 4 c0 -2 -10 -12 -22 -23 l-23 -19 19
23 c18 21 26 27 26 19z m-50 -61 c0 -2 -8 -10 -17 -17 -16 -13 -17 -12 -4 4
13 16 21 21 21 13z m-40 -49 c0 -2 -10 -12 -22 -23 l-23 -19 19 23 c18 21 26
27 26 19z m-50 -60 c0 -2 -10 -12 -22 -23 l-23 -19 19 23 c18 21 26 27 26 19z
m-50 -60 c0 -2 -10 -12 -22 -23 l-23 -19 19 23 c18 21 26 27 26 19z m-70 -30
c0 -2 -10 -12 -22 -23 l-23 -19 19 23 c18 21 26 27 26 19z m20 -31 c0 -2 -8
-10 -17 -17 -16 -13 -17 -12 -4 4 13 16 21 21 21 13z m-70 -30 c0 -2 -8 -10
-17 -17 -16 -13 -17 -12 -4 4 13 16 21 21 21 13z m20 -30 c0 -2 -8 -10 -17
-17 -16 -13 -17 -12 -4 4 13 16 21 21 21 13z m-70 -30 c0 -2 -8 -10 -17 -17
-16 -13 -17 -12 -4 4 13 16 21 21 21 13z m-40 -49 c0 -2 -10 -12 -22 -23 l-23
-19 19 23 c18 21 26 27 26 19z m20 -31 c0 -2 -8 -10 -17 -17 -16 -13 -17 -12
-4 4 13 16 21 21 21 13z m-60 -19 c0 -2 -10 -12 -22 -23 l-23 -19 19 23 c18
21 26 27 26 19z m-50 -61 c0 -2 -8 -10 -17 -17 -16 -13 -17 -12 -4 4 13 16 21
21 21 13z m20 -30 c0 -2 -8 -10 -17 -17 -16 -13 -17 -12 -4 4 13 16 21 21 21
13z m-1210 -10 c0 -16 -14 -36 -26 -36 -14 0 -19 22 -7 33 7 8 33 10 33 3z
m-60 -26 c-9 -17 -30 -28 -30 -16 0 16 15 36 26 36 12 0 12 -4 4 -20z m-46 -4
c-9 -24 -34 -28 -34 -6 0 13 7 20 20 20 13 0 17 -5 14 -14z m86 -56 c0 -11 -7
-20 -15 -20 -27 0 -18 30 13 39 1 1 2 -8 2 -19z m1120 16 c0 -2 -8 -10 -17
-17 -16 -13 -17 -12 -4 4 13 16 21 21 21 13z m-1004 -43 c-11 -11 -19 6 -11
24 8 17 8 17 12 0 3 -10 2 -21 -1 -24z m-229 0 c-15 -16 -17 -16 -17 -1 0 9 6
18 13 21 20 7 22 -2 4 -20z m57 12 c-4 -8 -12 -15 -20 -15 -8 0 -11 6 -8 15 4
8 12 15 20 15 8 0 11 -6 8 -15z m1136 -18 c0 -2 -10 -12 -22 -23 l-23 -19 19
23 c18 21 26 27 26 19z m-1110 -37 c0 -5 -5 -10 -11 -10 -5 0 -7 5 -4 10 3 6
8 10 11 10 2 0 4 -4 4 -10z m1060 -24 c0 -2 -8 -10 -17 -17 -16 -13 -17 -12
-4 4 13 16 21 21 21 13z m-40 -50 c0 -2 -8 -10 -17 -17 -16 -13 -17 -12 -4 4
13 16 21 21 21 13z m-150 -179 c0 -2 -10 -12 -22 -23 l-23 -19 19 23 c18 21
26 27 26 19z m-40 -51 c0 -2 -8 -10 -17 -17 -16 -13 -17 -12 -4 4 13 16 21 21
21 13z m-432 -61 c-1 -1 -13 -6 -25 -9 -19 -6 -23 -3 -23 13 0 23 43 34 48 13
2 -8 2 -15 0 -17z m62 25 c0 -5 -9 -14 -20 -20 -17 -9 -20 -8 -20 10 0 13 7
20 20 20 11 0 20 -4 20 -10z m330 -14 c0 -2 -8 -10 -17 -17 -16 -13 -17 -12
-4 4 13 16 21 21 21 13z m-340 -36 c0 -11 -29 -40 -41 -40 -14 0 -10 27 7 44
15 16 34 13 34 -4z m-70 -13 c0 -17 -20 -37 -37 -37 -16 0 -17 22 -1 38 16 16
38 15 38 -1z m40 -67 c-9 -17 -40 -29 -40 -16 0 18 15 36 31 36 17 0 18 -3 9
-20z m-67 -15 c-5 -16 -33 -21 -33 -7 0 13 22 32 31 26 5 -2 6 -11 2 -19z m51
-30 c-6 -16 -34 -21 -34 -7 0 13 11 22 26 22 8 0 11 -6 8 -15z m-64 -10 c0 -8
-9 -15 -20 -15 -13 0 -18 5 -14 15 4 8 12 15 20 15 8 0 14 -7 14 -15z m300
-68 c0 -2 -10 -12 -22 -23 l-23 -19 19 23 c18 21 26 27 26 19z m-40 -50 c0 -2
-10 -12 -22 -23 l-23 -19 19 23 c18 21 26 27 26 19z m-40 -50 c0 -2 -10 -12
-22 -23 l-23 -19 19 23 c18 21 26 27 26 19z m-3560 -170 c24 -17 24 -17 -7 0
-18 9 -57 42 -85 72 l-53 55 60 -54 c33 -31 71 -63 85 -73z m3510 109 c0 -2
-8 -10 -17 -17 -16 -13 -17 -12 -4 4 13 16 21 21 21 13z m-3539 -43 c13 -16
12 -17 -3 -4 -10 7 -18 15 -18 17 0 8 8 3 21 -13z m3499 -6 c0 -2 -10 -12 -22
-23 l-23 -19 19 23 c18 21 26 27 26 19z m-80 -97 c-23 -27 -44 -50 -47 -50 -3
0 14 23 37 50 23 28 44 50 47 50 3 0 -14 -22 -37 -50z m-3244 -48 c-5 -4 -66
26 -66 33 0 3 16 -3 35 -12 19 -9 33 -18 31 -21z m3194 -15 c0 -2 -10 -12 -22
-23 l-23 -19 19 23 c18 21 26 27 26 19z m-2980 -92 c0 -3 -31 11 -70 30 -38
19 -70 38 -70 40 0 3 32 -11 70 -30 39 -19 70 -38 70 -40z m2940 42 c0 -2 -12
-14 -27 -28 l-28 -24 24 28 c23 25 31 32 31 24z m-131 -157 c-45 -55 -87 -103
-93 -107 -6 -4 9 18 34 48 25 30 65 78 89 107 23 28 45 52 48 52 2 0 -33 -45
-78 -100z m-9 46 c0 -2 -8 -10 -17 -17 -16 -13 -17 -12 -4 4 13 16 21 21 21
13z m-2470 -96 c33 -17 60 -33 60 -35 0 -5 -119 52 -129 61 -13 12 16 1 69
-26z m2284 -190 c-85 -107 -120 -145 -98 -107 13 21 185 227 190 227 2 0 -39
-54 -92 -120z m-1714 -105 c0 -3 -76 33 -170 80 -93 47 -170 87 -170 90 0 3
77 -33 170 -80 94 -47 170 -87 170 -90z m1720 171 c0 -2 -8 -10 -17 -17 -16
-13 -17 -12 -4 4 13 16 21 21 21 13z m-2116 -102 c3 -8 2 -12 -4 -9 -6 3 -10
10 -10 16 0 14 7 11 14 -7z m286 -159 c0 -3 -54 22 -120 55 -66 33 -120 62
-120 65 0 3 54 -22 120 -55 66 -33 120 -62 120 -65z m540 -130 c0 -3 -85 38
-190 90 -104 52 -190 97 -190 100 0 3 86 -38 190 -90 105 -52 190 -97 190
-100z m1131 137 c-17 -32 -175 -187 -239 -236 l-64 -47 8 -52 c5 -29 9 -74 9
-102 l0 -50 -50 -24 c-36 -18 -73 -26 -131 -29 l-81 -4 -8 68 c-13 127 -19
133 -139 149 -27 4 -58 11 -70 16 -18 8 -17 9 7 4 287 -57 516 27 707 258 57
70 67 79 51 49z m-121 -85 c0 -2 -12 -14 -27 -28 l-28 -24 24 28 c23 25 31 32
31 24z m-1084 -45 c-5 -4 -66 26 -66 33 0 3 16 -3 35 -12 19 -9 33 -18 31 -21z
m-46 -22 c8 -5 11 -10 5 -10 -5 0 -17 5 -25 10 -8 5 -10 10 -5 10 6 0 17 -5
25 -10z m424 -139 c-5 -5 -294 136 -294 143 0 3 67 -27 149 -67 81 -40 147
-74 145 -76z m-84 13 c0 -3 -7 -4 -15 0 -12 4 -13 2 -6 -12 11 -21 20 -101 14
-119 -3 -7 -12 -13 -20 -13 -24 0 -113 52 -113 66 0 16 -78 77 -104 81 -11 2
-32 15 -46 28 -15 14 -28 23 -31 21 -2 -2 -4 9 -4 25 0 16 3 29 8 29 4 0 7 -4
7 -10 0 -5 8 -7 18 -4 13 5 14 4 4 -4 -21 -14 -10 -44 20 -61 33 -19 45 -9 30
23 -10 22 -9 23 13 12 14 -6 20 -12 15 -14 -16 -6 11 -59 35 -70 23 -11 25 -9
25 12 0 13 -10 31 -22 39 -13 9 -18 16 -11 16 6 1 20 -9 30 -22 11 -14 26 -21
41 -19 41 6 20 35 -50 72 -116 61 -88 55 40 -9 67 -34 122 -64 122 -67z m-344
58 c-4 -3 -14 2 -24 12 -16 18 -16 18 6 6 13 -6 21 -14 18 -18z"/>
<path d="M5942 7763 c2 -12 12 -18 28 -18 16 0 26 6 28 18 3 13 -3 17 -28 17
-25 0 -31 -4 -28 -17z"/>
<path d="M6330 7410 c0 -13 11 -13 30 0 12 8 11 10 -7 10 -13 0 -23 -4 -23
-10z"/>
<path d="M6305 7380 c3 -5 11 -10 16 -10 6 0 7 5 4 10 -3 6 -11 10 -16 10 -6
0 -7 -4 -4 -10z"/>
<path d="M6388 7363 c7 -3 16 -2 19 1 4 3 -2 6 -13 5 -11 0 -14 -3 -6 -6z"/>
<path d="M3930 2186 c0 -15 45 -56 61 -56 18 0 8 39 -13 54 -28 20 -48 20 -48
2z"/>
<path d="M6270 8070 c-15 -5 -18 -8 -8 -9 9 -1 23 -4 32 -7 11 -4 16 -1 16 10
0 17 -3 18 -40 6z"/>
<path d="M6450 8009 c0 -5 5 -7 10 -4 6 3 10 8 10 11 0 2 -4 4 -10 4 -5 0 -10
-5 -10 -11z"/>
<path d="M4880 7976 c0 -32 7 -35 49 -24 l33 9 -38 20 c-47 24 -44 24 -44 -5z"/>
<path d="M6420 7980 c0 -5 5 -10 10 -10 6 0 10 5 10 10 0 6 -4 10 -10 10 -5 0
-10 -4 -10 -10z"/>
<path d="M6885 7823 c-16 -8 -38 -25 -47 -37 -23 -28 -23 -98 0 -124 18 -22
511 -277 564 -293 43 -12 104 6 140 41 36 37 39 97 6 134 -13 13 -143 85 -290
160 -284 145 -309 153 -373 119z"/>
<path d="M6366 7624 c-25 -24 -20 -54 8 -54 30 0 59 27 52 47 -3 8 -6 17 -6
19 0 11 -40 2 -54 -12z"/>
<path d="M4506 7575 c-13 -20 -25 -25 -57 -25 -38 0 -40 1 -28 18 13 15 12 16
-3 3 -28 -21 -21 -31 22 -31 35 0 42 -4 64 -39 21 -33 31 -40 73 -46 46 -7 49
-5 76 27 48 57 52 75 5 31 -29 -29 -53 -43 -71 -43 -33 0 -34 9 -6 44 12 15
19 29 16 32 -3 3 -15 -8 -28 -25 -13 -17 -26 -31 -31 -31 -4 0 -15 14 -23 31
-15 29 -15 32 1 50 9 11 15 21 12 24 -3 3 -13 -6 -22 -20z"/>
<path d="M6497 7552 c-26 -28 -22 -52 8 -52 23 0 24 2 15 20 -6 11 -8 25 -5
30 9 15 35 12 35 -4 0 -23 29 -41 43 -27 9 10 8 11 -5 6 -13 -5 -20 0 -28 19
-11 31 -40 34 -63 8z"/>
<path d="M6643 7483 c-15 -5 -17 -23 -4 -23 5 0 11 7 15 15 3 8 4 15 3 14 -1
0 -8 -3 -14 -6z"/>
<path d="M6681 7438 c-10 -31 -10 -43 -2 -46 6 -2 8 -9 5 -15 -3 -7 10 6 30
28 39 44 44 60 21 69 -12 4 -13 2 -6 -12 7 -14 5 -23 -9 -34 -23 -20 -29 -14
-23 23 6 42 -2 36 -16 -13z m19 -39 c0 -6 -4 -7 -10 -4 -5 3 -10 11 -10 16 0
6 5 7 10 4 6 -3 10 -11 10 -16z"/>
<path d="M6769 7413 l-24 -28 30 25 c17 14 32 26 34 28 2 1 0 2 -6 2 -5 0 -20
-12 -34 -27z"/>
<path d="M6830 7430 c-8 -5 -11 -10 -7 -10 5 0 -6 -19 -23 -42 l-32 -43 32 35
c29 32 55 70 48 70 -2 0 -10 -5 -18 -10z"/>
<path d="M6620 7412 c0 -20 18 -42 34 -42 5 0 1 6 -9 14 -11 8 -16 19 -12 30
4 9 2 16 -3 16 -6 0 -10 -8 -10 -18z"/>
<path d="M6460 7351 c-7 -15 -7 -19 5 -17 19 3 32 16 16 16 -7 0 -9 5 -6 10 3
6 4 10 1 10 -3 0 -10 -9 -16 -19z"/>
<path d="M6521 7316 c-7 -8 -8 -17 -3 -20 6 -3 15 1 21 8 7 8 8 17 3 20 -6 3
-15 -1 -21 -8z"/>
<path d="M6582 7322 c-8 -6 -2 -9 17 -9 17 0 28 4 25 9 -7 10 -25 10 -42 0z"/>
<path d="M6721 7264 c0 -11 3 -14 6 -6 3 7 2 16 -1 19 -3 4 -6 -2 -5 -13z"/>
<path d="M6650 7219 c-13 -9 -13 -10 2 -6 9 3 19 1 22 -6 2 -7 5 -4 5 6 1 20
-7 21 -29 6z"/>
<path d="M6776 7193 c-6 -14 -5 -15 5 -6 7 7 10 15 7 18 -3 3 -9 -2 -12 -12z"/>
<path d="M6802 7178 c-15 -15 -16 -31 0 -26 6 2 12 12 14 21 3 20 2 21 -14 5z"/>
<path d="M6719 7168 c15 -20 41 -24 41 -7 0 5 -5 7 -10 4 -6 -4 -19 -1 -28 7
-15 12 -16 11 -3 -4z"/>
<path d="M4879 7113 c-13 -16 -12 -17 4 -4 9 7 17 15 17 17 0 8 -8 3 -21 -13z"/>
<path d="M2401 7104 c0 -11 3 -14 6 -6 3 7 2 16 -1 19 -3 4 -6 -2 -5 -13z"/>
<path d="M2838 7076 c-16 -19 -28 -39 -28 -43 0 -4 11 6 25 22 l24 30 1 -42
c0 -24 3 -43 8 -43 9 0 62 66 62 77 0 4 -13 -8 -28 -27 l-27 -35 -5 48 -5 47
-27 -34z"/>
<path d="M4060 7075 l-23 -25 46 0 c26 0 47 -3 47 -7 0 -5 9 -19 19 -33 l19
-24 18 36 c17 36 37 48 82 48 23 0 30 16 10 22 -15 5 -66 -19 -95 -45 -21 -19
-24 -19 -41 -4 -10 10 -34 17 -52 17 -32 0 -33 0 -15 20 26 29 13 25 -15 -5z"/>
<path d="M2386 7028 c-9 -82 -8 -98 10 -98 23 0 223 80 230 92 4 6 0 6 -13 -1
-11 -6 -23 -8 -26 -5 -2 3 -18 7 -33 9 -16 2 -29 4 -29 5 0 3 -65 11 -89 11
-10 0 -20 9 -23 20 -9 34 -20 20 -27 -33z"/>
<path d="M2916 7011 c-15 -17 -16 -23 -6 -36 7 -8 22 -15 34 -14 20 1 18 2
-22 15 -20 6 4 44 28 44 25 0 26 -17 3 -24 -14 -4 -14 -4 2 -3 11 1 20 9 20
17 0 23 -39 23 -59 1z"/>
<path d="M6090 7002 c0 -6 -10 -20 -22 -32 -24 -22 -68 -26 -99 -10 -26 14
-26 -6 0 -22 15 -9 18 -19 14 -40 -7 -33 12 -38 21 -5 3 12 20 29 38 37 31 14
66 65 54 77 -3 4 -6 1 -6 -5z"/>
<path d="M3036 6977 c5 -15 1 -17 -27 -15 -24 2 -34 -1 -34 -11 0 -8 7 -16 15
-18 13 -4 13 -3 0 6 -8 5 -11 13 -8 17 11 10 40 -4 33 -16 -3 -5 -2 -10 2 -10
5 0 14 10 21 21 10 16 11 24 2 33 -8 8 -9 7 -4 -7z"/>
<path d="M3067 6952 c-26 -31 -30 -47 -6 -26 13 12 31 23 38 26 13 4 12 5 -1
10 -9 4 -22 -1 -31 -10z"/>
<path d="M3114 6929 c-27 -40 -28 -42 -9 -55 16 -12 22 -12 39 0 27 17 33 46
12 58 -8 5 -13 15 -10 23 11 27 -3 16 -32 -26z m44 -21 c4 -20 -29 -40 -47
-29 -10 7 -10 12 1 30 15 24 41 24 46 -1z"/>
<path d="M2699 6901 c-33 -33 -37 -62 -13 -86 19 -19 75 -17 82 3 3 9 -3 11
-20 7 -35 -9 -55 17 -40 50 15 33 71 36 79 5 7 -26 29 -20 25 6 -9 50 -70 58
-113 15z"/>
<path d="M3180 6866 c-6 -19 -19 -37 -28 -39 -13 -4 -13 -5 -2 -6 8 0 26 9 40
20 14 11 19 17 11 13 -11 -5 -12 -1 -7 20 9 38 0 32 -14 -8z"/>
<path d="M3229 6873 c-13 -16 -12 -17 4 -4 9 7 17 15 17 17 0 8 -8 3 -21 -13z"/>
<path d="M3303 6854 c-3 -8 -1 -20 6 -27 29 -29 -8 -53 -39 -24 -12 10 -12 9
-1 -5 18 -24 61 -24 61 0 0 10 -5 23 -12 30 -9 9 -9 15 0 24 9 9 16 7 32 -7
11 -10 20 -13 20 -7 0 12 -31 32 -50 32 -6 0 -13 -7 -17 -16z"/>
<path d="M2800 6813 c-25 -32 -22 -43 14 -63 26 -14 28 -14 52 13 39 45 28 77
-26 77 -10 0 -28 -12 -40 -27z m70 -3 c0 -5 -9 -10 -20 -10 -11 0 -20 5 -20
10 0 6 9 10 20 10 11 0 20 -4 20 -10z m-15 -30 c18 -7 19 -8 3 -15 -21 -8 -48
0 -48 15 0 12 17 12 45 0z"/>
<path d="M3352 6783 c-29 -43 -38 -61 -22 -46 7 6 27 9 45 6 26 -4 35 -1 44
15 9 16 8 24 -5 36 -22 23 -40 20 -62 -11z m53 -9 c0 -12 -8 -20 -22 -22 -25
-4 -31 16 -11 36 17 17 33 10 33 -14z"/>
<path d="M7986 6797 c3 -10 9 -15 12 -12 3 3 0 11 -7 18 -10 9 -11 8 -5 -6z"/>
<path d="M2895 6764 c-18 -24 -24 -39 -17 -46 6 -6 17 1 31 21 22 30 51 42 51
21 0 -6 -7 -24 -15 -40 -22 -43 0 -47 29 -4 28 42 26 54 -11 72 -37 17 -37 17
-68 -24z"/>
<path d="M3035 6760 c-4 -6 -11 -7 -17 -4 -8 5 -9 1 -5 -10 4 -10 -2 -29 -15
-47 -19 -26 -20 -31 -8 -39 22 -14 33 -12 27 4 -8 21 21 56 46 56 15 0 18 3 9
8 -7 5 -10 16 -6 25 7 19 -20 25 -31 7z"/>
<path d="M3435 6750 c-22 -24 -13 -50 18 -50 42 0 66 50 31 64 -24 9 -29 8
-49 -14z m50 0 c9 -15 -14 -40 -36 -40 -21 0 -25 20 -7 38 15 15 35 15 43 2z"/>
<path d="M2557 6732 c-10 -10 -17 -28 -17 -40 0 -30 43 -30 64 0 18 25 21 58
6 58 -5 0 -7 -6 -4 -14 8 -22 -14 -56 -36 -56 -26 0 -26 24 0 50 11 11 16 20
12 20 -5 0 -16 -8 -25 -18z"/>
<path d="M3520 6720 c-12 -17 -19 -36 -17 -43 3 -7 6 -5 6 5 1 9 12 26 26 36
14 11 21 23 16 26 -5 4 -19 -7 -31 -24z"/>
<path d="M3066 6681 c-25 -26 -34 -41 -26 -46 10 -6 79 60 80 78 0 16 -18 5
-54 -32z"/>
<path d="M3115 6690 c-3 -5 -2 -10 4 -10 5 0 13 5 16 10 3 6 2 10 -4 10 -5 0
-13 -4 -16 -10z"/>
<path d="M2690 6680 c-9 -6 -11 -10 -3 -10 7 0 10 -7 6 -15 -6 -17 -29 -14
-26 3 2 7 -4 9 -14 5 -14 -6 -14 -8 5 -23 12 -10 18 -21 14 -25 -4 -5 -2 -5 4
-2 7 4 21 23 33 42 20 35 13 46 -19 25z"/>
<path d="M4880 6673 c-83 -57 -114 -190 -74 -322 14 -47 17 -51 28 -35 8 10
18 14 26 9 10 -6 11 -1 5 21 -30 118 -23 224 19 300 13 24 24 44 23 44 -2 0
-14 -8 -27 -17z"/>
<path d="M3155 6670 c3 -5 13 -10 21 -10 8 0 14 -7 14 -15 0 -18 -5 -18 -31
-5 -22 12 -59 -3 -59 -23 0 -16 57 -48 73 -41 7 2 21 19 32 36 18 31 18 31 -5
50 -24 19 -55 25 -45 8z m10 -49 c3 -5 1 -13 -5 -16 -15 -9 -43 3 -35 15 8 13
32 13 40 1z"/>
<path d="M3238 6618 c-47 -59 -52 -68 -35 -68 8 0 33 25 56 55 50 66 31 77
-21 13z"/>
<path d="M4277 6406 c-325 -381 -838 -996 -844 -1011 -3 -9 14 -23 48 -41 42
-21 57 -24 71 -15 15 9 18 8 18 -8 0 -14 34 -37 141 -91 157 -81 164 -89 157
-177 -4 -42 -1 -56 14 -70 24 -21 23 -43 -7 -155 -14 -51 -25 -98 -25 -105 0
-6 32 -39 71 -72 70 -60 70 -61 99 -46 30 15 32 20 69 155 5 19 10 28 10 20 0
-8 -6 -40 -14 -70 -9 -35 -11 -58 -5 -64 7 -7 10 -6 10 3 0 7 4 10 8 7 14 -9
30 8 41 44 l11 35 -3 -31 c-2 -24 0 -31 10 -27 8 3 11 8 9 11 -3 3 -2 10 3 16
5 6 27 95 50 198 23 103 50 217 60 253 11 39 14 64 8 62 -6 -2 -34 -95 -63
-208 -61 -236 -65 -248 -58 -194 3 22 24 118 47 213 23 94 38 171 33 169 -6
-2 -30 -85 -55 -186 -25 -100 -47 -178 -49 -173 -3 10 61 304 73 335 4 9 3 17
-3 17 -6 0 -29 -79 -53 -176 -24 -97 -45 -172 -47 -166 -1 5 11 70 28 144 17
73 33 143 35 156 3 12 2 22 -3 22 -4 0 -39 -125 -77 -277 -52 -210 -70 -271
-76 -251 -4 16 1 60 13 110 11 46 32 146 48 223 l29 140 -23 20 c-13 11 -34
36 -47 55 -13 19 -34 46 -46 60 -13 14 -23 30 -23 37 0 30 25 20 93 -36 l73
-59 75 32 c99 44 162 76 156 82 -2 2 -42 -13 -89 -35 -139 -64 -113 -69 -253
53 l-40 34 75 36 76 36 28 106 28 105 22 -19 c21 -20 21 -20 94 9 67 27 75 28
96 14 17 -12 22 -22 18 -45 -3 -18 0 -30 7 -30 6 0 11 11 11 25 0 18 5 25 19
25 20 0 71 36 71 51 0 5 -9 0 -20 -11 -24 -24 -45 -25 -94 -5 -30 13 -36 20
-36 46 0 35 39 79 70 79 11 0 23 7 26 15 8 20 52 209 49 213 -1 1 -46 -11
-100 -28 -53 -16 -103 -30 -109 -30 -11 0 -136 117 -136 127 0 3 64 82 143
176 197 237 188 224 176 253 -5 14 -9 37 -9 52 0 25 -4 24 -58 -33 -31 -33
-83 -90 -114 -125 -32 -36 -58 -60 -58 -53 0 6 11 20 25 31 14 11 25 23 25 26
0 3 39 54 87 114 104 128 107 132 101 132 -2 0 -102 -114 -221 -254z m-76
-366 c5 -3 2 -26 -7 -50 l-14 -45 5 47 c3 28 0 50 -6 54 -8 4 -9 -1 -4 -16 5
-14 3 -20 -3 -16 -6 4 -8 -2 -4 -16 3 -13 1 -19 -5 -15 -6 4 -18 -23 -30 -66
l-20 -72 46 -47 c25 -27 45 -51 44 -54 -1 -4 -52 -29 -114 -56 l-113 -48 -48
47 -47 46 20 28 19 28 44 -47 43 -46 77 37 c42 20 76 41 76 47 0 14 -6 13 -42
-6 -16 -9 -48 -22 -69 -29 -38 -14 -40 -13 -74 16 -19 17 -35 35 -35 39 0 8
46 64 179 218 48 57 55 62 64 45 6 -10 14 -20 18 -23z m28 -37 c0 -5 -4 -17
-9 -28 -8 -18 -9 -17 -9 8 -1 15 4 27 9 27 6 0 10 -3 9 -7z m16 -43 c-4 -12
-9 -19 -12 -17 -3 3 -2 15 2 27 4 12 9 19 12 17 3 -3 2 -15 -2 -27z m259 3
c-4 -16 -18 -57 -32 -92 -22 -55 -30 -66 -66 -82 -23 -10 -46 -19 -52 -19 -16
0 -25 41 -12 57 8 10 6 13 -10 13 -18 0 -20 4 -15 38 3 20 8 40 12 44 8 9 153
67 169 67 9 1 10 -7 6 -26z m-327 -55 c-3 -8 -6 -5 -6 6 -1 11 2 17 5 13 3 -3
4 -12 1 -19z m33 -18 c0 -5 -2 -10 -4 -10 -3 0 -8 5 -11 10 -3 6 -1 10 4 10 6
0 11 -4 11 -10z m-50 -220 c0 -5 -5 -10 -11 -10 -5 0 -7 5 -4 10 3 6 8 10 11
10 2 0 4 -4 4 -10z m-60 -30 c0 -5 -4 -10 -10 -10 -5 0 -10 5 -10 10 0 6 5 10
10 10 6 0 10 -4 10 -10z m60 -4 c0 -3 -4 -8 -10 -11 -5 -3 -10 -1 -10 4 0 6 5
11 10 11 6 0 10 -2 10 -4z m-380 -50 c-15 -40 -13 -44 27 -61 50 -21 68 -39
94 -92 l22 -45 -28 -99 c-25 -92 -45 -120 -45 -64 0 48 -9 55 -67 55 -74 0
-126 17 -171 55 -32 28 -35 35 -23 48 11 15 16 13 38 -14 34 -40 73 -59 123
-59 37 0 100 23 100 36 0 2 -9 0 -19 -6 -28 -15 -86 -12 -129 5 -38 17 -82 52
-82 67 0 12 161 210 166 205 3 -2 0 -16 -6 -31z m310 14 c0 -5 -4 -10 -10 -10
-5 0 -10 5 -10 10 0 6 5 10 10 10 6 0 10 -4 10 -10z m-40 -10 c0 -5 -5 -10
-11 -10 -5 0 -7 5 -4 10 3 6 8 10 11 10 2 0 4 -4 4 -10z m100 0 c0 -5 -5 -10
-11 -10 -5 0 -7 5 -4 10 3 6 8 10 11 10 2 0 4 -4 4 -10z m-30 -10 c0 -5 -5
-10 -11 -10 -5 0 -7 5 -4 10 3 6 8 10 11 10 2 0 4 -4 4 -10z m-100 -4 c0 -3
-4 -8 -10 -11 -5 -3 -10 -1 -10 4 0 6 5 11 10 11 6 0 10 -2 10 -4z m60 -10 c0
-3 -4 -8 -10 -11 -5 -3 -10 -1 -10 4 0 6 5 11 10 11 6 0 10 -2 10 -4z m-70
-30 c0 -3 -4 -8 -10 -11 -5 -3 -10 -1 -10 4 0 6 5 11 10 11 6 0 10 -2 10 -4z
m60 -16 c0 -5 -5 -10 -11 -10 -5 0 -7 5 -4 10 3 6 8 10 11 10 2 0 4 -4 4 -10z
m0 -34 c0 -3 -4 -8 -10 -11 -5 -3 -10 -1 -10 4 0 6 5 11 10 11 6 0 10 -2 10
-4z m-80 -36 c0 -5 -5 -10 -11 -10 -5 0 -7 5 -4 10 3 6 8 10 11 10 2 0 4 -4 4
-10z m117 -632 c-3 -8 -6 -5 -6 6 -1 11 2 17 5 13 3 -3 4 -12 1 -19z m30 -10
c-3 -8 -6 -5 -6 6 -1 11 2 17 5 13 3 -3 4 -12 1 -19z m-18 -72 c-6 -26 -13
-45 -16 -43 -2 3 1 26 8 51 6 26 13 45 16 43 2 -3 -1 -26 -8 -51z m38 22 c-3
-8 -6 -5 -6 6 -1 11 2 17 5 13 3 -3 4 -12 1 -19z"/>
<path d="M2756 6602 l-19 -27 26 24 c33 30 53 20 30 -17 l-17 -27 26 24 c35
31 58 18 27 -15 -12 -13 -17 -24 -11 -24 12 0 48 48 41 54 -8 6 -72 36 -78 36
-3 0 -15 -13 -25 -28z"/>
<path d="M3325 6575 c-45 -44 -25 -99 35 -97 49 1 60 16 15 22 -46 6 -57 30
-29 61 22 25 50 24 64 -1 13 -25 30 -26 30 -2 0 47 -74 58 -115 17z"/>
<path d="M2895 6544 c-16 -20 -23 -35 -16 -33 12 4 57 69 48 69 -2 0 -17 -16
-32 -36z"/>
<path d="M2855 6543 l-17 -28 23 22 c12 12 20 25 17 28 -3 3 -13 -7 -23 -22z"/>
<path d="M6556 6547 c3 -10 9 -15 12 -12 3 3 0 11 -7 18 -10 9 -11 8 -5 -6z"/>
<path d="M2922 6528 c-17 -17 -15 -45 4 -52 24 -9 31 -7 12 5 -28 16 -21 26
13 21 26 -4 30 -2 27 14 -4 23 -38 30 -56 12z m48 -8 c0 -5 -9 -10 -20 -10
-11 0 -20 5 -20 10 0 6 9 10 20 10 11 0 20 -4 20 -10z"/>
<path d="M6516 6508 c9 -32 42 -96 51 -101 5 -2 44 1 88 7 65 9 80 15 83 30 4
18 -1 19 -57 13 -34 -4 -73 -10 -86 -13 -22 -6 -27 -1 -46 40 -20 47 -46 65
-33 24z"/>
<path d="M3450 6510 c0 -5 9 -10 20 -10 11 0 20 -5 20 -10 0 -7 -13 -9 -33 -5
-24 5 -37 2 -46 -9 -16 -19 -9 -31 29 -50 29 -14 31 -14 55 18 30 40 31 52 6
66 -25 13 -51 13 -51 0z m18 -52 c-3 -7 -11 -13 -18 -13 -7 0 -15 6 -17 13 -3
7 4 12 17 12 13 0 20 -5 18 -12z"/>
<path d="M6570 6514 c0 -6 6 -18 13 -28 12 -16 22 -18 70 -12 51 7 77 19 65
32 -3 2 -31 -1 -63 -8 -53 -10 -59 -10 -71 7 -8 10 -14 14 -14 9z"/>
<path d="M2994 6498 c-4 -6 1 -17 10 -24 12 -8 14 -14 6 -19 -6 -4 -19 -1 -28
6 -16 12 -16 12 0 -6 14 -15 19 -16 33 -5 11 9 13 16 5 24 -15 15 -12 29 6 22
8 -3 12 -2 9 4 -8 14 -32 13 -41 -2z"/>
<path d="M4981 6460 c10 -28 19 -61 19 -75 0 -13 5 -27 10 -30 6 -3 10 2 10
12 0 10 11 35 25 55 28 41 15 67 -15 29 l-16 -23 -16 41 c-9 23 -21 41 -26 41
-6 0 -2 -23 9 -50z"/>
<path d="M3559 6487 c-9 -7 -19 -22 -23 -34 -4 -11 -13 -27 -21 -33 -18 -15
-19 -30 -2 -30 6 0 21 14 32 30 11 16 29 30 40 31 11 0 14 3 8 6 -22 8 -14 23
13 23 14 0 23 4 19 10 -8 14 -46 12 -66 -3z"/>
<path d="M7307 6485 c-8 -18 -77 -21 -110 -4 l-22 12 22 -24 c16 -18 20 -32
16 -53 -4 -22 -2 -27 8 -24 8 3 15 14 17 26 2 12 10 22 17 22 18 0 72 46 64
55 -4 3 -9 -1 -12 -10z"/>
<path d="M2725 6427 c43 -25 75 -39 75 -33 0 5 -98 56 -107 56 -5 0 10 -11 32
-23z"/>
<path d="M3581 6414 c-12 -15 -21 -30 -21 -35 0 -16 32 -39 56 -39 30 0 32 17
2 22 -12 2 -24 9 -26 17 -5 14 -4 14 57 -5 26 -8 37 36 14 54 -27 20 -60 14
-82 -14z m69 -4 c0 -5 -6 -10 -14 -10 -8 0 -18 5 -21 10 -3 6 3 10 14 10 12 0
21 -4 21 -10z"/>
<path d="M5087 6423 c-4 -3 -7 -22 -7 -41 0 -25 9 -43 34 -68 39 -39 61 -43
77 -13 15 29 -4 93 -34 114 -22 16 -59 20 -70 8z m65 -30 c21 -19 25 -83 6
-83 -31 1 -63 49 -53 80 8 24 23 25 47 3z"/>
<path d="M6638 6391 c-49 -10 -89 -19 -91 -22 -2 -2 -32 -83 -67 -179 -92
-253 -95 -259 -127 -255 -15 1 -32 11 -40 21 -7 10 -13 14 -13 8 0 -5 -5 -1
-11 8 -7 13 2 52 35 153 24 74 41 135 37 135 -26 -2 -134 -30 -141 -36 -8 -9
-80 -189 -80 -200 0 -4 13 -4 29 -1 28 6 32 2 60 -46 50 -88 50 -88 -63 -108
-54 -10 -102 -21 -107 -26 -9 -9 -78 -185 -86 -220 -4 -15 -1 -23 8 -23 20 0
181 29 185 33 2 2 15 34 27 70 13 37 26 69 29 72 3 3 18 -24 34 -60 17 -40 34
-65 44 -65 15 0 285 45 325 55 14 3 26 20 37 52 9 26 37 106 62 177 l46 128
-40 74 -39 75 34 97 c19 53 35 98 35 100 0 5 -38 0 -122 -17z m-144 -318 c-17
-53 -89 -232 -92 -229 -6 6 81 246 90 246 4 0 5 -8 2 -17z m35 -109 c-28 -79
-59 -148 -46 -104 16 59 72 211 74 203 2 -5 -11 -50 -28 -99z m62 83 c-10 -9
-11 -8 -5 6 3 10 9 15 12 12 3 -3 0 -11 -7 -18z m-96 -72 c-15 -42 -30 -74
-33 -71 -2 3 0 18 6 33 6 15 18 49 28 76 9 26 19 45 22 42 3 -2 -8 -39 -23
-80z m60 -42 c-26 -75 -44 -116 -45 -101 0 19 63 202 67 191 3 -7 -8 -47 -22
-90z m-176 -172 c-7 -23 -16 -41 -20 -41 -4 0 -1 20 9 45 20 55 28 52 11 -4z
m35 0 c-9 -23 -18 -40 -20 -38 -2 2 4 22 13 45 9 23 18 40 20 38 2 -2 -4 -22
-13 -45z"/>
<path d="M5220 6325 c0 -49 4 -60 29 -86 34 -34 56 -37 71 -10 16 30 13 98 -5
105 -12 4 -15 -4 -15 -44 0 -36 -4 -50 -14 -50 -25 0 -41 32 -41 83 0 31 -5
52 -12 54 -10 3 -13 -11 -13 -52z"/>
<path d="M2758 6363 c7 -3 16 -2 19 1 4 3 -2 6 -13 5 -11 0 -14 -3 -6 -6z"/>
<path d="M2837 6349 c4 -13 8 -18 11 -10 2 7 -1 18 -6 23 -8 8 -9 4 -5 -13z"/>
<path d="M2888 6325 c5 -45 -26 -88 -78 -109 -22 -9 -40 -18 -40 -20 0 -3 115
-63 256 -135 266 -136 302 -148 357 -120 31 16 57 50 57 76 0 59 -14 69 -290
208 l-266 133 4 -33z"/>
<path d="M6212 6304 l23 -45 50 6 c54 8 96 24 60 24 -11 0 -39 -4 -63 -8 -43
-8 -43 -8 -63 30 -27 55 -33 49 -7 -7z"/>
<path d="M5690 6318 c-19 -11 -33 -29 -36 -48 -4 -16 -10 -28 -14 -25 -4 3 -1
-23 6 -58 7 -34 16 -100 20 -147 7 -110 10 -119 29 -94 99 129 94 120 96 187
1 23 6 48 12 54 10 13 0 129 -10 119 -3 -3 -11 2 -18 11 -17 23 -49 23 -85 1z"/>
<path d="M2701 6314 c0 -11 3 -14 6 -6 3 7 2 16 -1 19 -3 4 -6 -2 -5 -13z"/>
<path d="M7416 6317 c-28 -20 -17 -52 18 -52 36 0 56 26 37 49 -16 19 -31 20
-55 3z"/>
<path d="M2794 6299 c-13 -15 -28 -20 -51 -17 -17 2 -29 0 -27 -4 3 -4 17 -8
32 -8 31 0 19 -16 -18 -23 -15 -2 -6 -5 21 -6 54 -1 99 27 99 62 -1 20 -2 20
-11 4 -6 -9 -15 -15 -20 -12 -5 4 -7 11 -4 16 11 16 -1 10 -21 -12z"/>
<path d="M6120 6260 c-13 -34 -20 -63 -17 -66 3 -3 13 19 22 48 10 29 22 56
28 59 6 4 5 9 -1 13 -5 3 -20 -21 -32 -54z"/>
<path d="M6133 6224 c-12 -37 -19 -63 -14 -58 14 15 43 102 39 114 -2 6 -13
-19 -25 -56z"/>
<path d="M6157 6218 c-9 -29 -15 -54 -13 -56 2 -2 12 20 21 48 9 28 15 53 13
55 -2 3 -12 -19 -21 -47z"/>
<path d="M7487 6263 c-4 -3 -7 -15 -7 -25 0 -30 54 -21 58 10 3 17 -1 22 -21
22 -13 0 -27 -3 -30 -7z"/>
<path d="M7312 6245 c-29 -21 -23 -29 50 -66 69 -35 88 -32 88 10 0 23 -7 34
-27 45 -49 24 -86 28 -111 11z"/>
<path d="M6167 6179 c-15 -41 -27 -81 -27 -89 1 -8 14 21 31 65 16 44 28 84
26 89 -2 5 -15 -24 -30 -65z"/>
<path d="M6980 6225 c-31 -18 -81 -19 -100 -2 -8 6 -5 1 7 -13 15 -18 20 -33
16 -54 -4 -22 -2 -27 8 -24 8 3 15 10 15 16 1 7 2 18 3 26 0 7 14 16 30 19 17
4 35 15 41 27 13 24 12 24 -20 5z"/>
<path d="M5072 6214 c-7 -8 -8 -14 -3 -14 10 0 25 19 20 25 -2 1 -10 -3 -17
-11z"/>
<path d="M5163 6185 c-3 -9 -3 -18 -1 -21 3 -3 8 4 11 16 6 23 -1 27 -10 5z"/>
<path d="M7470 6181 c0 -11 -5 -23 -12 -27 -15 -10 19 -35 38 -27 17 6 18 45
2 61 -17 17 -28 15 -28 -7z"/>
<path d="M5227 6159 c4 -13 8 -18 11 -10 2 7 -1 18 -6 23 -8 8 -9 4 -5 -13z"/>
<path d="M4302 6121 c-80 -32 -77 -31 -94 -31 -7 0 14 -27 47 -60 33 -33 65
-60 72 -60 7 0 -13 24 -43 53 l-55 53 78 32 78 32 49 -48 50 -47 -44 51 c-25
29 -49 52 -55 53 -5 0 -43 -13 -83 -28z"/>
<path d="M5292 6110 c0 -14 2 -19 5 -12 2 6 2 18 0 25 -3 6 -5 1 -5 -13z"/>
<path d="M6035 6070 c-26 -7 -22 -8 23 -9 29 0 52 3 52 9 0 11 -31 11 -75 0z"/>
<path d="M4979 5977 c16 -20 71 -61 71 -54 0 3 -19 20 -42 38 -24 19 -37 26
-29 16z"/>
<path d="M6165 5929 c-22 -5 -50 -11 -62 -14 -13 -3 -23 -10 -23 -16 0 -8 18
-9 58 -5 76 9 92 15 92 32 0 16 -7 16 -65 3z"/>
<path d="M7120 5918 c-19 -5 -52 -25 -72 -44 -21 -19 -43 -34 -48 -34 -27 0
-3 -19 65 -53 51 -25 76 -33 81 -25 4 6 8 39 9 72 1 34 5 69 9 79 9 19 6 19
-44 5z"/>
<path d="M7185 5905 c-29 -28 -31 -38 -9 -59 34 -35 104 -8 104 40 0 48 -56
59 -95 19z m52 -11 c7 -18 -24 -47 -39 -38 -5 3 -1 12 8 18 9 7 14 18 10 24
-4 7 -2 12 4 12 6 0 13 -7 17 -16z"/>
<path d="M5996 5885 c-9 -26 -7 -32 5 -12 6 10 9 21 6 23 -2 3 -7 -2 -11 -11z"/>
<path d="M6004 5845 c-17 -40 -18 -56 -3 -35 8 11 9 8 5 -15 -7 -35 7 -15 18
25 6 19 5 21 -3 10 -14 -20 -15 4 -1 31 6 10 8 19 5 19 -3 0 -13 -16 -21 -35z"/>
<path d="M2180 5771 l-31 -41 26 -12 c58 -26 110 44 59 79 -20 13 -24 11 -54
-26z m70 -6 c0 -32 -59 -60 -75 -35 -3 5 4 23 16 39 18 24 26 28 41 20 10 -5
18 -16 18 -24z"/>
<path d="M7025 5780 c-7 -12 18 -24 37 -18 8 3 5 9 -9 16 -14 8 -24 9 -28 2z"/>
<path d="M5121 5763 c-5 -10 -10 -22 -11 -28 -2 -15 -10 -20 -10 -8 0 6 -9 9
-20 6 -11 -3 -27 0 -35 7 -13 11 -14 10 -9 -4 4 -9 1 -16 -6 -16 -7 0 -10 -7
-6 -16 3 -8 2 -12 -4 -9 -11 7 -14 -8 -3 -19 4 -3 8 -12 10 -19 15 -73 59
-198 77 -222 13 -16 27 -41 31 -55 15 -49 58 -54 100 -10 16 17 37 30 46 30
10 0 40 32 73 78 31 42 73 97 93 120 30 35 36 51 35 79 -2 20 2 39 7 43 6 3
-11 5 -37 4 -26 -1 -49 1 -52 5 -15 20 -63 42 -72 33 -7 -7 -19 -7 -34 -2 -15
6 -39 5 -66 -3 -33 -10 -48 -10 -65 -2 -13 7 -20 15 -16 18 3 4 1 7 -5 7 -6 0
-16 -8 -21 -17z"/>
<path d="M1620 5756 c0 -2 7 -7 16 -10 8 -3 12 -2 9 4 -6 10 -25 14 -25 6z"/>
<path d="M1592 5728 c3 -7 33 -28 69 -47 35 -19 58 -28 52 -20 -7 9 -9 20 -5
25 4 5 3 6 -2 2 -4 -4 -15 -1 -22 7 -8 8 -22 11 -31 8 -11 -4 -14 -2 -9 5 3 6
-2 16 -13 21 -26 14 -44 14 -39 -1z m43 -16 c-3 -3 -11 0 -18 7 -9 10 -8 11 6
5 10 -3 15 -9 12 -12z"/>
<path d="M1660 5735 c0 -2 22 -16 50 -30 37 -19 48 -21 43 -10 -3 9 -8 14 -10
11 -3 -3 -23 4 -44 15 -22 11 -39 17 -39 14z"/>
<path d="M2262 5719 c-19 -20 -20 -49 -1 -49 4 0 6 7 2 16 -4 12 1 15 23 12
23 -2 29 1 29 17 0 28 -29 30 -53 4z m48 -3 c0 -9 -7 -12 -20 -9 -11 3 -17 9
-14 14 8 14 34 10 34 -5z"/>
<path d="M2337 5694 c-4 -4 -2 -13 4 -20 6 -8 9 -21 5 -29 -6 -17 9 -21 20 -4
3 6 1 16 -5 22 -6 6 -11 15 -11 19 0 12 27 10 33 -2 3 -6 4 -5 3 2 -3 14 -38
23 -49 12z"/>
<path d="M2404 5655 c-15 -20 -25 -38 -22 -40 3 -3 17 13 32 35 33 49 27 52
-10 5z"/>
<path d="M1760 5655 c0 -2 17 -13 38 -24 20 -11 31 -20 24 -21 -18 0 -5 -20
14 -20 29 0 12 27 -31 48 -25 12 -45 20 -45 17z"/>
<path d="M1730 5646 c0 -2 7 -7 16 -10 8 -3 12 -2 9 4 -6 10 -25 14 -25 6z"/>
<path d="M2440 5625 c-13 -14 -21 -27 -18 -31 3 -3 16 9 28 25 26 37 22 40
-10 6z"/>
<path d="M2065 5618 c-30 -17 -44 -40 -45 -70 0 -44 63 -66 91 -32 12 15 10
16 -18 10 -25 -6 -34 -3 -42 12 -21 39 43 87 74 55 8 -8 15 -19 15 -24 0 -5 5
-9 10 -9 19 0 10 39 -12 54 -26 19 -46 20 -73 4z"/>
<path d="M2465 5603 l-18 -28 27 24 c28 26 31 31 17 31 -5 0 -17 -12 -26 -27z"/>
<path d="M2516 5616 c3 -9 -1 -27 -10 -41 -23 -35 -12 -31 13 4 18 25 19 30 6
41 -13 11 -14 10 -9 -4z"/>
<path d="M6575 5560 c-10 -23 -28 -45 -39 -50 -18 -6 -18 -7 6 -12 19 -4 25
-1 21 9 -3 7 -1 13 5 13 12 0 35 55 30 71 -2 6 -12 -8 -23 -31z"/>
<path d="M2197 5576 c-6 -16 2 -28 14 -20 12 7 11 34 0 34 -5 0 -11 -6 -14
-14z"/>
<path d="M2591 5579 c-2 -28 -27 -53 -46 -45 -17 6 -17 7 1 28 19 21 19 21 -3
9 -26 -13 -28 -22 -11 -39 29 -29 76 5 65 46 -4 14 -5 14 -6 1z"/>
<path d="M2622 5544 c-32 -49 -24 -51 11 -3 16 21 25 39 20 39 -4 0 -18 -16
-31 -36z"/>
<path d="M2147 5513 c-34 -48 -15 -57 22 -12 35 41 51 23 22 -25 -11 -18 -18
-36 -14 -39 10 -10 35 -8 29 2 -8 13 33 61 52 61 12 0 13 3 5 11 -6 6 -9 18
-6 25 6 17 -9 18 -25 2 -10 -10 -17 -10 -32 0 -26 16 -23 17 -53 -25z"/>
<path d="M2655 5510 c-16 -16 -24 -30 -19 -30 6 0 20 14 32 30 13 17 21 30 19
30 -2 0 -16 -13 -32 -30z"/>
<path d="M2690 5500 c-25 -25 -25 -37 1 -51 18 -9 25 -7 46 13 23 23 23 26 8
42 -21 21 -31 20 -55 -4z m47 -6 c3 -8 -1 -23 -10 -31 -13 -14 -19 -14 -32 -3
-14 12 -14 15 1 31 21 23 33 24 41 3z"/>
<path d="M8219 5491 c-56 -56 -22 -145 56 -145 77 0 115 97 59 149 -37 34 -78
33 -115 -4z"/>
<path d="M6580 5502 c0 -5 9 -17 21 -28 21 -19 21 -19 8 9 -12 26 -29 37 -29
19z"/>
<path d="M2263 5448 c-14 -39 -23 -52 -36 -50 -19 3 -23 -13 -7 -23 18 -11
151 77 138 91 -4 4 -24 -6 -45 -21 -27 -22 -35 -24 -30 -11 15 38 19 66 9 66
-5 0 -18 -24 -29 -52z"/>
<path d="M2757 5455 c-22 -31 -12 -33 12 -3 12 14 24 19 35 15 16 -6 16 -9 -4
-39 l-22 -33 26 29 c21 22 24 31 15 42 -17 21 -42 16 -62 -11z"/>
<path d="M5840 5455 c-13 -16 -8 -18 27 -9 13 4 20 10 17 15 -8 14 -30 11 -44
-6z"/>
<path d="M1916 5416 c-30 -40 -35 -63 -5 -26 23 29 41 60 36 60 -3 0 -16 -15
-31 -34z"/>
<path d="M2406 5403 c-20 -25 -36 -50 -36 -55 0 -15 19 -8 33 12 13 18 18 19
41 9 25 -12 25 -14 11 -35 -18 -28 -19 -34 -2 -34 14 1 87 92 87 109 0 18 -18
13 -33 -9 -11 -16 -21 -19 -41 -14 -31 7 -31 8 -10 39 14 22 14 25 1 25 -8 0
-31 -21 -51 -47z"/>
<path d="M6370 5419 c-1 -13 61 -141 66 -136 3 3 -11 36 -30 73 -19 38 -35 66
-36 63z"/>
<path d="M6570 5400 c-45 -9 -75 -20 -75 -27 0 -7 3 -13 8 -14 19 -2 157 24
157 30 -1 23 -20 26 -90 11z"/>
<path d="M2035 5400 c5 -8 1 -19 -11 -28 -18 -14 -18 -14 -1 -8 10 3 21 6 23
6 9 0 3 29 -8 36 -7 5 -8 3 -3 -6z"/>
<path d="M5364 5388 l-19 -23 23 19 c21 18 27 26 19 26 -2 0 -12 -10 -23 -22z"/>
<path d="M4046 5371 c-6 -9 81 -91 97 -91 17 0 4 18 -42 58 -28 23 -52 38 -55
33z"/>
<path d="M6382 5305 c18 -35 34 -63 36 -60 6 6 -50 125 -59 125 -5 0 6 -29 23
-65z"/>
<path d="M6620 5360 c-19 -4 -61 -13 -93 -20 -44 -9 -60 -17 -67 -33 -5 -12
-44 -103 -86 -202 -41 -99 -77 -181 -79 -183 -2 -2 -20 27 -39 64 -19 38 -35
62 -35 54 0 -8 14 -42 32 -76 32 -58 33 -63 20 -99 -7 -21 -18 -44 -24 -51
-19 -24 12 -26 112 -9 100 17 109 21 109 36 0 6 42 117 94 247 51 131 97 247
101 260 7 24 7 24 -45 12z"/>
<path d="M1970 5350 c-13 -9 -13 -11 0 -20 8 -5 20 -10 25 -10 6 0 3 5 -5 10
-13 9 -13 11 0 20 8 5 11 10 5 10 -5 0 -17 -5 -25 -10z"/>
<path d="M2535 5351 c-3 -5 4 -11 15 -13 37 -6 26 -22 -15 -22 -52 -1 -59 -27
-13 -51 l33 -16 28 33 c15 18 27 38 27 45 0 24 -62 44 -75 24z m25 -51 c0 -12
-28 -25 -36 -17 -9 9 6 27 22 27 8 0 14 -5 14 -10z"/>
<path d="M4245 5319 c-87 -44 -109 -59 -82 -59 21 0 187 82 187 92 0 15 -25 7
-105 -33z"/>
<path d="M2623 5295 c-46 -56 -50 -65 -30 -65 18 0 92 99 81 110 -5 4 -27 -15
-51 -45z"/>
<path d="M2082 5317 c-12 -13 -22 -27 -22 -31 0 -4 11 5 23 20 31 35 54 25 31
-14 l-16 -27 21 24 c12 14 27 21 36 17 14 -5 14 -9 -1 -33 l-16 -28 21 24 c24
27 22 34 -21 55 -38 19 -30 20 -56 -7z"/>
<path d="M3402 5297 c-30 -22 -85 -82 -123 -131 -39 -50 -87 -112 -107 -137
-20 -26 -50 -64 -67 -85 -16 -21 -54 -64 -82 -95 -29 -31 -53 -60 -53 -66 0
-5 -9 -18 -20 -28 -11 -10 -20 -24 -20 -32 0 -7 -3 -13 -8 -13 -4 0 -71 31
-150 70 l-142 69 0 -39 c0 -48 -36 -94 -86 -110 l-36 -12 103 -55 c57 -30 114
-61 126 -69 l22 -14 -23 -42 c-13 -24 -30 -42 -37 -40 -11 3 -12 1 -2 -9 11
-10 15 -10 25 2 7 8 29 27 49 41 l36 27 109 -56 c132 -68 153 -74 200 -61 52
14 84 52 84 99 0 46 -21 64 -157 134 -51 26 -93 50 -93 54 0 4 21 30 48 58 74
78 201 220 225 250 12 15 49 55 83 88 72 70 164 187 164 206 -1 38 -17 37 -68
-4z"/>
<path d="M6341 5330 c0 -8 13 -40 29 -70 16 -30 29 -48 29 -40 0 8 -13 40 -29
70 -16 30 -29 48 -29 40z"/>
<path d="M2662 5266 c-30 -39 -37 -56 -28 -59 8 -3 27 13 47 41 49 67 52 72
36 72 -8 0 -33 -24 -55 -54z"/>
<path d="M6321 5300 c0 -8 15 -42 34 -75 19 -33 35 -55 34 -50 0 17 -68 141
-68 125z"/>
<path d="M2180 5257 l-23 -32 29 27 c15 15 26 30 23 33 -3 2 -16 -10 -29 -28z"/>
<path d="M2221 5259 c-32 -43 -21 -46 12 -4 15 19 24 35 19 35 -4 0 -18 -14
-31 -31z"/>
<path d="M5935 5261 c-10 -17 12 -21 25 -6 10 12 10 15 -3 15 -9 0 -18 -4 -22
-9z"/>
<path d="M6311 5255 c0 -15 58 -122 59 -109 0 6 -13 35 -30 65 -16 30 -30 50
-29 44z"/>
<path d="M2242 5238 c-18 -18 -15 -36 11 -48 20 -10 20 -10 5 3 -26 20 -22 25
15 23 22 -1 32 3 32 14 0 19 -46 25 -63 8z m48 -8 c0 -5 -4 -10 -9 -10 -6 0
-13 5 -16 10 -3 6 1 10 9 10 9 0 16 -4 16 -10z"/>
<path d="M4311 5213 c-6 -21 -19 -74 -29 -118 -11 -44 -36 -145 -56 -223 -21
-79 -35 -146 -32 -149 3 -3 12 0 20 6 8 7 20 10 26 6 6 -3 10 3 10 14 0 12 4
21 8 21 18 0 31 -25 25 -51 -8 -40 22 -39 36 1 8 23 7 30 -3 30 -7 0 -22 9
-34 20 -12 11 -26 20 -32 20 -16 0 -12 35 21 169 50 203 68 291 58 291 -4 0
-13 -17 -18 -37z"/>
<path d="M6290 5227 c0 -11 59 -127 65 -127 2 0 1 10 -4 23 -12 30 -61 114
-61 104z"/>
<path d="M2325 5210 c-4 -6 -2 -17 5 -25 15 -18 -6 -31 -25 -15 -10 8 -15 9
-15 2 0 -16 40 -26 53 -13 7 7 6 15 -3 26 -17 20 -5 32 15 15 8 -7 15 -8 15
-2 0 5 -7 13 -16 16 -21 8 -22 8 -29 -4z"/>
<path d="M6840 5200 l-65 -7 87 -1 c49 -1 90 2 93 8 7 11 -9 11 -115 0z"/>
<path d="M6300 5131 c18 -34 34 -60 37 -57 6 6 -44 103 -58 111 -6 4 4 -21 21
-54z"/>
<path d="M6261 5155 c0 -5 13 -35 30 -65 16 -30 27 -44 23 -30 -7 28 -54 111
-53 95z"/>
<path d="M6271 5059 c16 -34 32 -59 35 -56 7 6 -48 117 -58 117 -5 0 6 -27 23
-61z"/>
<path d="M6230 5084 c0 -16 60 -137 66 -131 3 3 -11 36 -30 73 -19 38 -35 64
-36 58z"/>
<path d="M6611 5070 c14 -31 19 -36 19 -24 0 6 -7 19 -16 30 -14 18 -14 18 -3
-6z"/>
<path d="M2210 5055 c0 -7 81 -47 86 -43 2 3 -17 14 -41 26 -25 12 -45 20 -45
17z"/>
<path d="M6600 5021 c0 -6 4 -13 10 -16 6 -3 7 1 4 9 -7 18 -14 21 -14 7z"/>
<path d="M2325 4996 c11 -9 25 -20 31 -25 7 -5 15 -8 18 -6 3 3 -1 -3 -9 -13
-14 -15 -17 -15 -26 -2 -8 12 -9 10 -4 -7 4 -15 2 -23 -5 -23 -7 0 -10 -6 -7
-14 4 -9 0 -12 -12 -9 -11 3 -21 -2 -25 -12 -3 -9 -10 -14 -14 -11 -5 3 -7 -6
-4 -20 l4 -25 -53 21 c-30 11 -55 20 -57 20 -2 0 0 6 4 13 4 6 4 9 -1 5 -4 -4
-29 4 -56 17 -27 14 -52 25 -56 25 -15 0 55 -39 226 -125 178 -89 215 -99 270
-71 28 15 51 53 51 84 0 37 -36 65 -163 128 -73 35 -123 58 -112 50z"/>
<path d="M2305 4950 c3 -5 8 -10 11 -10 2 0 4 5 4 10 0 6 -5 10 -11 10 -5 0
-7 -4 -4 -10z"/>
<path d="M2010 4946 c0 -2 7 -7 16 -10 8 -3 12 -2 9 4 -6 10 -25 14 -25 6z"/>
<path d="M4648 4808 c-70 -51 -128 -98 -131 -104 -3 -5 8 -48 23 -95 15 -46
28 -78 29 -70 1 10 4 11 15 2 13 -11 13 -4 0 51 -8 35 -16 68 -18 74 -2 6 54
55 125 109 117 88 128 99 112 111 -10 7 -20 14 -23 14 -3 0 -63 -42 -132 -92z"/>
<path d="M3786 4844 c-61 -26 -88 -27 -39 0 15 8 23 15 17 16 -16 0 -62 -38
-75 -62 -18 -33 3 -37 56 -12 28 13 42 22 32 19 -63 -18 -63 -12 1 18 109 51
115 67 8 21z"/>
<path d="M3828 4823 c7 -3 16 -2 19 1 4 3 -2 6 -13 5 -11 0 -14 -3 -6 -6z"/>
<path d="M7798 4758 c-31 -40 -74 -96 -97 -125 l-42 -52 129 -65 130 -65 19
22 c11 12 55 68 97 124 l76 103 -122 62 c-68 35 -126 64 -129 66 -3 1 -31 -30
-61 -70z m250 -73 c2 -2 -50 -74 -105 -142 l-33 -41 -90 45 c-50 25 -90 50
-90 54 0 5 30 47 66 93 l67 85 91 -46 c50 -25 92 -46 94 -48z"/>
<path d="M7831 4667 l-40 -52 52 -27 c58 -29 59 -29 104 35 l32 43 -54 27 -53
26 -41 -52z"/>
<path d="M3748 4772 c-69 -28 -91 -42 -67 -42 16 0 145 53 156 63 14 14 -24 5
-89 -21z"/>
<path d="M3610 4713 c-30 -35 -63 -78 -73 -94 l-19 -29 38 -47 c30 -37 40 -43
42 -29 2 10 -7 30 -20 44 l-23 27 25 -22 25 -21 94 47 c52 26 97 53 99 60 3
10 0 10 -14 3 -82 -43 -150 -66 -158 -54 -3 6 0 9 7 9 20 -2 187 81 187 92 0
10 -73 -14 -130 -44 -16 -8 -37 -15 -47 -14 -10 0 6 10 35 21 29 12 50 23 47
26 -3 3 18 16 47 28 29 12 54 27 56 33 5 15 -3 14 -38 -4 -16 -8 -52 -20 -80
-26 -34 -7 -50 -16 -50 -26 0 -9 -3 -14 -6 -11 -3 3 0 25 6 48 6 23 10 43 8
45 -2 1 -28 -27 -58 -62z"/>
<path d="M8141 4656 c-10 -12 -6 -18 20 -32 31 -15 33 -15 46 2 12 16 10 20
-9 31 -30 16 -43 16 -57 -1z"/>
<path d="M5996 4598 c-9 -34 -8 -38 9 -38 8 0 15 -4 15 -10 0 -5 6 -10 14 -10
7 0 25 -9 40 -21 28 -22 56 -20 56 5 0 20 -31 36 -69 36 -28 0 -31 3 -31 30 0
36 -25 41 -34 8z"/>
<path d="M8064 4554 c-28 -34 -34 -48 -25 -54 10 -6 11 -12 1 -30 -10 -18 -9
-24 5 -34 15 -11 15 -13 1 -25 -20 -17 -20 -27 0 -35 21 -8 47 24 33 40 -14
18 15 36 45 28 14 -3 29 -11 32 -16 3 -5 19 5 34 24 27 31 29 32 46 16 14 -14
15 -21 6 -30 -8 -8 -8 -15 -1 -24 8 -10 -1 -29 -36 -74 -26 -34 -58 -72 -72
-86 -24 -24 -24 -44 2 -44 8 0 41 34 75 75 34 41 65 75 70 75 5 0 21 -5 35
-12 24 -11 29 -9 45 12 19 25 19 25 -7 38 l-25 14 23 24 c22 23 22 25 4 38
-18 13 -18 15 8 49 26 35 26 36 7 42 -15 5 -26 0 -40 -17 -11 -13 -19 -26 -20
-30 0 -13 -29 -9 -62 8 -31 16 -32 16 -59 -13 -20 -23 -30 -28 -43 -21 -11 6
-15 16 -10 30 4 12 1 24 -7 28 -10 7 -10 12 -1 23 10 12 9 16 -4 21 -8 3 -17
6 -19 6 -2 0 -21 -21 -41 -46z"/>
<path d="M3780 4561 c0 -11 9 -29 20 -38 12 -11 20 -30 20 -50 0 -41 16 -43
25 -3 4 17 12 30 19 30 22 0 66 40 66 61 0 19 -1 19 -29 -2 -32 -24 -71 -21
-103 8 -17 15 -18 14 -18 -6z"/>
<path d="M7616 4521 c-20 -22 -20 -31 -2 -31 7 0 19 -6 25 -13 8 -11 6 -18 -9
-32 l-21 -19 22 -12 c19 -10 25 -9 39 9 11 13 23 18 34 14 16 -6 16 -9 -1 -37
-12 -20 -23 -28 -34 -25 -23 8 -63 -47 -47 -63 16 -16 38 -15 38 2 0 7 6 19
14 25 12 10 17 8 26 -9 13 -25 -1 -50 -29 -50 -9 0 -23 -5 -31 -10 -13 -8 -12
-11 5 -24 18 -13 22 -13 37 1 13 12 21 13 31 5 7 -6 23 -9 35 -5 12 3 22 1 22
-5 0 -6 9 -14 21 -17 16 -5 18 -10 8 -21 -9 -11 -8 -15 5 -20 20 -8 20 -14 -4
-42 -16 -19 -22 -21 -44 -10 l-26 11 21 23 c20 21 20 23 2 31 -26 13 -85 10
-90 -4 -2 -6 5 -14 17 -18 20 -6 21 -8 4 -26 -11 -13 -21 -16 -33 -10 -19 11
-55 -5 -46 -19 3 -5 24 -14 46 -20 l40 -11 -21 -29 c-11 -15 -20 -30 -20 -33
0 -9 40 -15 45 -6 8 12 35 -1 35 -16 0 -22 22 -29 35 -11 7 9 23 15 36 14 33
-4 34 23 3 46 -19 13 -28 15 -33 7 -8 -12 -41 -5 -41 8 0 17 24 30 40 21 13
-7 22 -5 30 5 7 9 21 13 31 10 9 -3 20 -1 24 5 4 7 12 7 24 0 14 -7 23 -4 41
15 23 25 27 24 79 -12 2 -1 -10 -21 -27 -44 -17 -23 -29 -46 -26 -51 9 -15 32
-9 47 13 14 20 16 20 41 4 l26 -17 -20 -29 c-18 -24 -24 -27 -45 -19 -21 8
-27 6 -40 -14 -9 -13 -13 -29 -11 -37 3 -8 -5 -27 -18 -43 -21 -25 -26 -27
-46 -16 l-22 12 23 24 c20 21 21 26 9 34 -8 5 -19 10 -23 10 -15 0 5 21 29 30
26 10 33 30 10 30 -24 0 -29 20 -10 41 16 17 16 22 4 29 -10 6 -22 2 -37 -12
-21 -20 -22 -23 -7 -39 14 -15 13 -19 -12 -38 -15 -12 -34 -31 -41 -41 -13
-18 -12 -21 12 -30 14 -5 24 -14 21 -19 -4 -5 0 -11 6 -14 10 -3 10 -7 0 -20
-8 -9 -19 -14 -27 -11 -17 7 -30 -15 -17 -28 8 -8 15 -8 25 0 13 11 57 6 57
-8 0 -15 -40 -42 -55 -36 -9 3 -25 -3 -37 -14 -19 -18 -23 -18 -51 -4 l-30 16
28 22 c20 16 25 25 16 30 -6 4 -19 2 -27 -5 -11 -9 -18 -9 -26 -1 -9 9 -6 18
13 38 l24 25 -24 18 -24 18 24 16 c23 16 23 17 4 31 -28 20 -61 14 -85 -16
-13 -17 -27 -24 -39 -21 -14 4 -33 -13 -75 -66 -31 -38 -56 -72 -56 -74 0 -15
36 -15 51 -1 16 14 23 15 49 4 38 -16 45 -27 29 -46 -15 -18 -18 -15 58 -53
61 -30 77 -29 78 4 0 6 9 10 20 10 11 0 26 4 33 9 9 5 23 3 38 -5 23 -12 23
-14 9 -36 -19 -28 -11 -50 11 -32 11 9 21 9 38 1 21 -9 27 -6 55 33 37 52 44
57 65 49 23 -9 21 -16 -25 -73 -30 -37 -47 -51 -60 -48 -16 4 -48 -18 -38 -27
2 -2 49 -26 104 -54 90 -46 101 -50 115 -36 13 14 13 17 -4 30 -11 8 -26 14
-33 14 -15 0 -16 9 -4 29 5 8 16 11 28 7 12 -4 25 -1 33 9 9 11 17 12 31 5 16
-9 31 7 113 112 79 103 92 124 79 132 -10 6 -23 4 -35 -3 -16 -10 -27 -8 -64
14 -28 16 -42 31 -38 38 4 7 23 35 42 62 20 28 37 52 38 53 1 2 12 1 24 -3 15
-5 19 -12 15 -26 -5 -14 1 -22 19 -31 29 -13 31 -19 14 -36 -8 -8 -19 -8 -44
3 -28 12 -34 11 -45 -2 -13 -15 -11 -18 35 -45 15 -8 22 -7 32 7 9 13 17 14
31 6 16 -8 24 -4 46 24 15 19 27 36 27 39 0 3 -15 13 -32 22 -43 22 -43 21
-29 38 9 11 5 18 -24 35 -35 21 -36 21 -57 2 -11 -11 -28 -17 -37 -14 -9 3
-22 7 -29 9 -10 3 -3 14 19 35 17 16 38 28 46 25 8 -3 25 6 37 21 l24 27 50
-27 c50 -27 51 -27 61 -8 15 28 16 26 -41 51 l-52 22 -14 -21 c-10 -15 -19
-18 -31 -12 -12 7 -26 2 -51 -19 -32 -26 -35 -27 -69 -13 -34 15 -35 14 -61
-17 -26 -32 -27 -33 -53 -15 -32 21 -35 35 -7 35 28 0 37 28 14 45 -18 13 -18
14 0 33 10 12 15 25 12 30 -7 12 -46 23 -46 14 0 -4 -7 -16 -15 -26 -14 -19
-16 -19 -55 -1 l-41 18 -27 -32 c-19 -23 -32 -30 -45 -26 -12 5 -16 14 -12 26
5 14 -1 22 -20 31 -16 7 -24 17 -20 26 3 8 1 20 -5 27 -15 18 4 29 29 16 14
-8 22 -7 31 4 9 11 17 12 36 3 19 -9 28 -8 37 1 9 10 8 14 -6 22 -14 8 -15 14
-7 24 6 8 17 12 24 9 7 -3 19 2 26 10 10 13 9 17 -4 22 -9 4 -20 4 -23 0 -3
-3 -12 -1 -18 4 -8 7 -17 4 -30 -10 -14 -15 -22 -17 -37 -9 -18 10 -18 12 -4
28 14 15 13 18 -5 30 -18 10 -23 10 -34 -6 -11 -15 -11 -21 -1 -33 22 -25 8
-41 -29 -34 -42 8 -58 -21 -20 -36 30 -11 31 -16 5 -30 -25 -13 -65 7 -49 26
6 7 4 16 -6 24 -14 12 -14 15 0 30 9 10 24 16 34 13 11 -3 21 2 25 13 7 18 -8
34 -31 34 -16 0 -16 6 -3 30 9 17 2 24 -59 54 -66 33 -69 34 -85 17z m504
-570 c-1 -17 -18 -31 -33 -25 -17 6 -22 25 -11 36 7 7 44 -2 44 -11z m70 9
c11 -7 12 -12 3 -21 -16 -16 -44 -4 -37 16 7 17 13 18 34 5z m-534 -66 c28 11
26 -23 -2 -48 -23 -19 -33 -22 -47 -14 -13 7 -23 6 -29 0 -6 -6 -17 -8 -24 -5
-11 4 -6 15 17 44 26 33 33 37 51 28 11 -6 26 -8 34 -5z m453 -40 c4 -4 -68
-104 -75 -104 -10 0 -104 51 -104 56 0 4 16 28 36 55 l35 49 52 -26 c29 -15
54 -28 56 -30z m74 -40 c3 -4 -5 -21 -19 -39 l-24 -32 20 -14 c21 -14 21 -14
-8 -48 -21 -25 -33 -33 -46 -28 -16 6 -16 10 -5 24 8 10 10 18 4 20 -39 13
-39 21 0 72 36 46 61 61 78 45z m61 -40 c17 -7 10 -34 -9 -34 -17 0 -28 17
-20 30 7 12 8 12 29 4z m-335 -20 c2 -2 -2 -10 -8 -18 -10 -12 -17 -13 -31 -4
-25 16 -14 41 14 32 11 -4 23 -8 25 -10z m126 -124 c3 -5 -4 -23 -16 -39 -18
-25 -25 -28 -42 -20 -18 10 -18 12 9 40 30 31 39 35 49 19z"/>
<path d="M7996 3835 c-7 -20 21 -32 37 -16 9 9 8 14 -3 21 -21 13 -27 12 -34
-5z"/>
<path d="M5986 4504 c-9 -24 -7 -34 8 -34 16 0 29 27 20 41 -8 14 -21 11 -28
-7z"/>
<path d="M8432 4499 c-10 -16 -11 -24 -2 -33 9 -8 16 -5 31 13 19 23 18 41 -4
41 -7 0 -18 -10 -25 -21z"/>
<path d="M8474 4428 c-28 -35 -72 -91 -98 -125 l-47 -62 120 -61 c67 -33 126
-60 133 -60 7 0 24 15 38 33 14 17 56 71 94 119 l67 87 -123 63 c-68 35 -126
64 -129 66 -3 1 -28 -26 -55 -60z m244 -83 c2 -2 -110 -150 -129 -170 -10 -10
-189 72 -189 87 0 4 30 46 66 93 l65 85 92 -46 c51 -26 93 -47 95 -49z"/>
<path d="M8499 4329 c-23 -27 -40 -51 -38 -53 2 -2 27 -15 55 -29 l51 -26 20
22 c11 12 29 36 41 53 l21 30 -54 27 -54 26 -42 -50z"/>
<path d="M7974 4449 c-15 -17 -16 -22 -4 -29 18 -11 56 22 46 39 -10 16 -21
14 -42 -10z"/>
<path d="M5045 4425 c-33 -7 -51 -13 -40 -13 11 -1 49 5 85 12 36 8 54 14 40
14 -14 0 -52 -6 -85 -13z"/>
<path d="M7527 4406 c-15 -23 -15 -25 8 -40 25 -16 25 -17 6 -37 -11 -12 -24
-19 -29 -15 -5 3 -17 -3 -27 -14 -13 -14 -22 -17 -34 -10 -13 6 -20 3 -29 -11
-10 -16 -10 -21 3 -25 8 -4 22 -1 29 5 14 12 66 5 66 -8 0 -3 -9 -17 -20 -31
-11 -14 -20 -28 -20 -31 0 -3 22 -16 49 -29 44 -20 51 -21 70 -8 20 14 20 15
-15 32 -35 16 -36 17 -19 36 17 19 17 20 -9 30 -23 8 -25 12 -15 28 7 11 20
17 29 15 24 -6 33 23 14 42 -14 14 -14 18 1 41 9 14 15 27 13 29 -6 5 -47 25
-51 25 -3 0 -12 -11 -20 -24z"/>
<path d="M5445 4368 l-7 -53 -17 33 -17 33 -17 -36 c-21 -44 -21 -44 3 -38 26
7 26 -12 -1 -57 -20 -32 -22 -33 -34 -16 -8 10 -11 25 -8 33 5 13 3 13 -16 4
l-22 -12 32 -60 c23 -42 37 -58 48 -55 9 2 40 10 69 16 33 8 52 17 52 26 0 27
-50 115 -62 108 -13 -9 -3 37 18 80 7 16 11 32 8 37 -12 20 -22 6 -29 -43z"/>
<path d="M5170 4409 c0 -13 42 -101 47 -96 2 3 -7 27 -21 54 -14 26 -25 45
-26 42z"/>
<path d="M8127 4384 c-19 -25 -15 -44 8 -44 23 0 40 40 23 55 -11 11 -16 9
-31 -11z"/>
<path d="M8041 4346 c-10 -12 -8 -17 9 -26 18 -10 24 -8 35 7 12 15 11 19 -3
25 -25 10 -28 9 -41 -6z"/>
<path d="M3510 4307 c-8 -12 -18 -27 -23 -34 -5 -8 1 -16 15 -23 21 -10 21
-10 5 3 -16 13 -16 16 4 41 12 15 19 29 17 31 -2 2 -10 -6 -18 -18z"/>
<path d="M8263 4291 c-6 -10 -32 -44 -57 -74 -44 -54 -45 -57 -26 -67 16 -9
22 -8 26 4 5 12 10 13 27 5 17 -10 23 -7 38 12 23 30 23 35 3 43 -14 5 -12 11
11 42 22 29 25 38 14 45 -20 12 -23 11 -36 -10z"/>
<path d="M3589 4268 c11 -15 11 -21 0 -35 -12 -17 -12 -17 6 0 19 17 19 17 0
35 -18 16 -18 16 -6 0z"/>
<path d="M3610 4225 c-10 -12 -10 -18 0 -30 7 -8 18 -15 24 -15 6 0 3 5 -6 11
-25 14 -11 42 18 36 13 -2 21 0 18 4 -8 14 -40 10 -54 -6z"/>
<path d="M3010 4175 l0 -54 68 19 c89 25 123 39 98 39 -11 1 -16 6 -13 15 5
11 -1 13 -28 9 -19 -3 -54 1 -79 10 l-46 16 0 -54z"/>
<path d="M5710 4212 c0 -5 11 -15 25 -22 15 -8 24 -19 20 -28 -3 -8 -8 -25
-12 -40 -6 -23 -5 -24 13 -11 11 8 43 31 72 53 29 21 52 40 50 41 -9 8 -168
15 -168 7z"/>
<path d="M3714 4202 c3 -6 2 -13 -3 -16 -5 -4 -13 -2 -16 4 -8 13 -35 -6 -35
-23 0 -6 6 -3 13 8 10 12 16 14 21 7 4 -7 4 -16 1 -22 -13 -22 4 -8 19 14 11
18 13 27 4 32 -6 4 -8 3 -4 -4z"/>
<path d="M7269 4083 c-46 -59 -90 -114 -97 -124 -11 -16 -1 -24 115 -83 120
-61 129 -64 144 -48 9 9 53 65 98 124 l81 108 -129 64 -129 65 -83 -106z m186
6 c59 -29 84 -46 81 -56 -3 -7 -33 -49 -67 -92 l-61 -80 -89 47 c-49 26 -88
52 -86 59 3 15 119 163 128 163 4 0 46 -19 94 -41z"/>
<path d="M7330 4029 c-22 -29 -39 -53 -38 -54 2 -1 27 -14 55 -29 l53 -26 35
47 c19 27 35 51 35 55 0 4 -22 19 -50 33 l-49 25 -41 -51z"/>
<path d="M3391 4161 c-30 -30 -27 -69 4 -81 25 -10 55 -4 55 10 0 5 -8 6 -18
3 -27 -7 -46 21 -32 46 15 29 56 28 64 -1 4 -18 8 -20 18 -10 19 19 -3 46 -40
50 -21 2 -37 -3 -51 -17z"/>
<path d="M3775 4139 c-4 -6 -5 -12 -2 -15 2 -3 7 2 10 11 7 17 1 20 -8 4z"/>
<path d="M3835 4136 c17 -12 18 -16 5 -32 -13 -18 -13 -18 5 -2 15 14 16 20 5
32 -7 9 -17 16 -23 16 -6 0 -2 -6 8 -14z"/>
<path d="M3793 4124 c-3 -8 -2 -19 3 -24 5 -5 9 1 9 16 0 28 -3 30 -12 8z"/>
<path d="M3865 4100 c-26 -28 -15 -31 12 -3 12 13 19 23 14 23 -4 0 -16 -9
-26 -20z"/>
<path d="M5510 4109 c0 -5 5 -7 10 -4 6 3 10 8 10 11 0 2 -4 4 -10 4 -5 0 -10
-5 -10 -11z"/>
<path d="M3474 4085 c-13 -21 -14 -28 -4 -41 18 -20 59 -14 77 12 12 19 12 24
-2 38 -24 23 -52 20 -71 -9z m56 5 c8 -5 12 -12 9 -15 -8 -8 -39 5 -39 16 0
11 11 11 30 -1z m0 -40 c0 -5 -9 -10 -19 -10 -11 0 -23 5 -26 10 -4 6 5 10 19
10 14 0 26 -4 26 -10z"/>
<path d="M3897 4077 l-17 -32 20 24 c17 20 26 41 18 41 -2 0 -11 -15 -21 -33z"/>
<path d="M8499 4074 c-7 -8 -21 -13 -30 -11 -10 3 -25 -3 -34 -13 -15 -17 -15
-19 6 -25 15 -5 26 -2 34 8 7 10 20 14 31 11 27 -7 54 23 33 37 -19 12 -25 11
-40 -7z"/>
<path d="M3557 4039 c-23 -42 -12 -51 17 -14 29 36 56 26 31 -12 -22 -33 -9
-44 15 -13 26 34 25 49 -6 60 -36 14 -37 13 -57 -21z"/>
<path d="M3656 4013 c-26 -37 -22 -63 9 -63 8 0 15 -6 18 -12 3 -8 12 -3 26
15 13 15 29 27 37 27 8 0 14 5 14 10 0 17 -36 11 -55 -10 -20 -22 -45 -27 -45
-7 0 22 18 40 34 34 9 -4 16 -2 16 3 0 6 -5 10 -11 10 -6 0 -9 7 -5 15 11 29
-13 15 -38 -22z"/>
<path d="M3261 4011 c-41 -41 -13 -78 35 -46 17 11 24 24 22 38 -4 29 -32 33
-57 8z m49 -4 c0 -8 -9 -22 -20 -32 -27 -25 -46 -7 -24 23 17 24 44 30 44 9z"/>
<path d="M3373 3959 c-37 -11 -39 -14 -19 -35 20 -19 36 -18 36 4 0 10 5 23
12 30 7 7 10 12 8 11 -3 0 -20 -5 -37 -10z m4 -24 c0 -8 -4 -12 -9 -9 -4 3 -8
9 -8 15 0 5 4 9 8 9 5 0 9 -7 9 -15z"/>
<path d="M3783 3961 c27 -10 17 -25 -17 -25 -40 -1 -43 -22 -6 -41 36 -19 43
-16 60 26 15 34 4 49 -35 48 -18 0 -19 -1 -2 -8z m2 -42 c10 -14 1 -21 -19
-13 -9 3 -13 10 -10 15 7 12 21 11 29 -2z"/>
<path d="M3842 3915 c-17 -24 -27 -47 -22 -50 8 -5 70 74 70 89 0 17 -20 1
-48 -39z"/>
<path d="M7742 3929 c2 -6 8 -10 13 -10 5 0 11 4 13 10 2 6 -4 11 -13 11 -9 0
-15 -5 -13 -11z"/>
<path d="M3447 3902 c-10 -10 -17 -22 -17 -26 0 -5 8 2 18 14 27 33 47 17 25
-18 l-17 -27 25 25 c21 22 22 27 9 37 -20 17 -24 16 -43 -5z"/>
<path d="M3920 3890 c-28 -28 -26 -68 4 -82 25 -11 56 -6 56 10 0 5 -11 7 -25
4 -30 -5 -42 17 -25 47 14 28 56 28 65 0 5 -14 10 -18 17 -11 6 6 6 17 -1 31
-15 27 -64 28 -91 1z"/>
<path d="M1496 3874 c-22 -21 -20 -51 4 -64 42 -22 82 34 48 68 -16 16 -33 15
-52 -4z"/>
<path d="M3511 3863 c-10 -26 -10 -27 4 -9 8 11 15 23 15 28 0 15 -7 8 -19
-19z"/>
<path d="M3554 3878 c-4 -7 -14 -24 -22 -38 -14 -24 -13 -24 3 -5 20 24 37 55
31 55 -3 0 -8 -6 -12 -12z"/>
<path d="M5520 3870 c-14 -26 -5 -40 26 -40 32 0 42 27 18 45 -25 19 -31 19
-44 -5z"/>
<path d="M3560 3835 c-7 -9 -11 -17 -9 -20 3 -2 10 5 17 15 14 24 10 26 -8 5z"/>
<path d="M3590 3825 c-15 -18 -6 -45 14 -45 18 0 40 36 31 50 -9 15 -31 12
-45 -5z m40 1 c0 -2 -3 -11 -6 -20 -7 -17 -34 -22 -34 -6 0 6 8 10 18 10 14 0
15 2 2 10 -13 8 -12 10 3 10 9 0 17 -2 17 -4z"/>
<path d="M4038 3829 c31 -12 20 -27 -16 -21 -54 8 -50 -36 5 -52 18 -6 25 -1
38 24 21 40 13 60 -22 59 -27 0 -27 0 -5 -10z m2 -50 c0 -11 -27 -12 -34 0 -3
4 -3 11 0 14 8 8 34 -3 34 -14z"/>
<path d="M4106 3805 c-11 -8 -16 -15 -12 -15 5 0 1 -12 -9 -26 -21 -32 -10
-47 13 -18 9 12 26 24 37 28 16 6 17 9 5 16 -13 8 -12 10 2 10 9 0 20 5 23 10
10 15 -38 11 -59 -5z"/>
<path d="M3656 3801 c-3 -5 1 -14 9 -21 13 -11 14 -10 8 5 -5 15 -3 17 11 12
10 -4 15 -3 11 3 -8 12 -32 13 -39 1z"/>
<path d="M7034 3795 c-4 -8 -1 -22 5 -29 9 -10 9 -16 1 -21 -6 -4 -18 1 -25
11 -13 17 -14 17 -15 3 0 -25 33 -36 60 -19 12 7 12 12 -4 28 -13 15 -14 22
-5 28 7 4 15 2 17 -4 2 -7 8 -12 14 -12 6 0 6 6 -2 15 -16 19 -39 19 -46 0z"/>
<path d="M4135 3747 c-8 -13 -13 -31 -10 -40 7 -17 43 -29 59 -19 6 3 1 9 -12
12 -13 3 -22 10 -20 15 2 6 8 8 13 6 42 -15 47 -14 43 15 -4 40 -49 47 -73 11z
m62 -14 c-8 -7 -37 9 -31 19 3 5 12 4 20 -3 8 -6 13 -14 11 -16z"/>
<path d="M7087 3749 c-9 -12 -13 -27 -10 -35 6 -17 42 -29 54 -17 6 6 1 9 -13
9 -28 -1 -32 32 -5 48 15 9 21 7 33 -9 l16 -20 -4 20 c-5 29 -52 32 -71 4z"/>
<path d="M3658 3753 c7 -3 16 -2 19 1 4 3 -2 6 -13 5 -11 0 -14 -3 -6 -6z"/>
<path d="M7172 3706 c-42 -30 -52 -41 -29 -33 24 9 47 -2 47 -22 1 -18 23 18
34 57 9 29 -9 28 -52 -2z m29 -19 c-16 -16 -26 0 -10 19 9 11 15 12 17 4 2 -6
-1 -17 -7 -23z"/>
<path d="M7241 3669 c-13 -17 -20 -33 -18 -36 3 -3 12 4 19 16 16 27 28 27 21
1 -3 -11 -2 -27 1 -36 5 -14 11 -11 31 16 30 41 32 49 5 25 -20 -18 -20 -17
-20 13 0 40 -10 40 -39 1z"/>
<path d="M7372 3636 c17 -12 17 -14 -2 -31 -11 -10 -20 -25 -20 -34 0 -9 9 -3
23 17 12 17 28 30 35 27 23 -8 12 12 -13 23 -34 16 -44 15 -23 -2z"/>
<path d="M7433 3597 c-42 -19 -37 -77 7 -77 21 0 50 31 50 53 0 24 -31 37 -57
24z m43 -18 c8 -14 -31 -53 -45 -45 -12 8 -15 39 -4 49 10 11 41 8 49 -4z"/>
<path d="M7525 3525 c-15 -20 -25 -38 -22 -41 2 -2 17 12 32 31 15 20 25 38
22 41 -2 2 -17 -12 -32 -31z"/>
<path d="M7564 3528 c-4 -7 -14 -23 -22 -35 -8 -13 -10 -23 -5 -23 4 0 16 12
25 28 l17 27 1 -38 c0 -23 4 -37 11 -35 14 5 53 68 42 68 -6 0 -16 -12 -24
-27 l-14 -28 -3 38 c-3 37 -15 47 -28 25z"/>
<path d="M7649 3484 c-9 -11 -9 -18 -1 -26 7 -7 12 -16 12 -20 0 -13 -38 -9
-43 5 -4 9 -6 9 -6 0 -2 -20 38 -36 54 -23 12 10 12 15 -2 36 -13 20 -13 24
-1 24 8 0 19 -5 26 -12 9 -9 12 -9 12 0 0 6 -9 16 -19 21 -14 8 -22 7 -32 -5z"/>
<path d="M7720 3462 c0 -6 5 -12 11 -14 6 -2 1 -15 -11 -31 -12 -16 -20 -30
-17 -33 3 -3 15 9 27 26 13 18 28 29 36 26 8 -3 14 -2 14 3 0 5 -8 11 -17 15
-10 3 -24 9 -30 12 -7 3 -13 1 -13 -4z"/>
<path d="M4780 3404 c-16 -42 -12 -103 10 -134 23 -33 86 -60 138 -60 20 0 60
11 88 24 63 29 94 75 93 137 -1 42 -1 43 -10 14 -6 -23 -15 -31 -36 -33 -15
-1 -31 4 -35 10 -5 8 -8 2 -6 -17 3 -29 1 -30 -62 -46 -36 -9 -69 -13 -74 -8
-5 4 -14 31 -21 61 -8 29 -14 43 -14 31 -1 -13 -7 -23 -14 -23 -21 0 -50 37
-44 55 4 8 4 15 1 15 -2 0 -9 -12 -14 -26z"/>
<path d="M7768 3397 c-35 -28 -35 -36 -3 -29 21 4 25 0 26 -19 0 -20 4 -17 19
16 10 22 19 43 19 48 2 15 -35 6 -61 -16z m37 -6 c-3 -6 -11 -11 -17 -11 -6 0
-6 6 2 15 14 17 26 13 15 -4z"/>
<path d="M7838 3361 l-27 -38 24 -11 c15 -7 25 -8 25 -2 0 6 -4 10 -10 10 -17
0 -11 22 11 46 11 12 17 24 12 27 -4 3 -20 -12 -35 -32z"/>
<path d="M4907 3358 c-6 -22 -5 -22 8 -4 14 18 16 18 33 3 18 -17 32 -14 32 7
0 6 -4 5 -9 -2 -6 -10 -10 -10 -21 3 -18 22 -37 19 -43 -7z"/>
<path d="M7900 3328 c-22 -30 -22 -32 -5 -45 11 -7 24 -13 29 -13 6 0 2 7 -8
15 -19 15 -19 15 2 45 13 16 19 30 14 30 -4 0 -19 -14 -32 -32z"/>
<path d="M6575 3235 c-27 -26 -32 -54 -13 -73 16 -16 60 -15 84 2 18 14 18 15
-9 25 -38 15 -46 13 -24 -3 23 -18 5 -31 -23 -16 -25 13 -25 22 -2 50 13 17
24 21 40 16 12 -4 22 -14 22 -22 0 -8 5 -14 10 -14 18 0 11 39 -9 50 -30 16
-50 12 -76 -15z"/>
<path d="M3339 3228 c-7 -13 -13 -44 -13 -71 0 -58 24 -94 84 -124 99 -51 235
-9 286 88 18 35 18 49 1 25 -13 -18 -102 -42 -91 -25 3 5 -2 9 -11 9 -9 0 -14
3 -12 8 3 4 1 16 -3 27 -6 16 -9 11 -17 -25 -10 -49 -37 -66 -48 -30 -7 23
-42 40 -81 40 -28 0 -31 8 -9 24 12 9 8 11 -19 12 -46 1 -69 20 -55 45 5 10 7
19 5 19 -3 0 -11 -10 -17 -22z"/>
<path d="M6673 3166 l-31 -43 30 -17 c16 -10 32 -15 36 -11 6 6 -11 20 -32 28
-5 2 -6 9 -2 16 5 8 19 10 39 6 29 -5 30 -5 15 8 -35 28 -17 48 23 27 12 -7
19 -7 19 -1 0 12 -33 31 -52 31 -7 -1 -27 -20 -45 -44z"/>
<path d="M6797 3158 l22 -11 -31 -38 c-41 -51 -26 -65 16 -15 23 28 38 37 49
33 33 -13 16 14 -18 29 -39 16 -71 18 -38 2z"/>
<path d="M2846 3121 c-3 -5 0 -13 7 -19 18 -15 77 -43 77 -37 0 2 -19 14 -42
26 -31 16 -38 23 -27 30 9 6 10 9 2 9 -6 0 -14 -4 -17 -9z"/>
<path d="M2887 3109 c7 -7 15 -10 18 -7 3 3 -2 9 -12 12 -14 6 -15 5 -6 -5z"/>
<path d="M6923 3096 c18 -14 17 -16 -9 -55 -36 -55 -24 -63 17 -12 23 30 38
40 51 35 32 -10 19 5 -22 26 -45 23 -64 26 -37 6z"/>
<path d="M6987 3013 c-20 -27 -31 -50 -26 -52 6 -1 16 4 23 14 8 12 19 15 38
10 26 -7 27 -8 11 -31 -27 -42 5 -27 37 18 32 44 42 79 11 38 -17 -22 -22 -23
-46 -12 -26 12 -26 14 -11 31 18 20 21 31 7 31 -5 0 -25 -21 -44 -47z"/>
<path d="M7123 2997 c-5 -6 -22 -28 -37 -49 l-27 -36 32 -16 c18 -9 35 -14 38
-10 5 5 -12 19 -34 28 -6 2 -5 8 2 16 10 11 18 11 38 2 17 -8 25 -8 25 -1 0 6
-9 13 -20 16 -11 3 -20 9 -20 14 0 16 27 21 49 9 32 -17 25 3 -8 23 -22 13
-31 14 -38 4z"/>
<path d="M3234 2932 c3 -5 19 -15 36 -22 16 -7 30 -16 30 -21 0 -5 -13 -3 -30
6 -16 9 -30 13 -30 10 0 -2 42 -25 93 -50 50 -25 84 -39 75 -32 -25 20 -22 30
3 17 11 -7 22 -10 24 -8 3 2 -43 27 -101 56 -58 29 -103 49 -100 44z m141 -82
c3 -6 -1 -7 -9 -4 -18 7 -21 14 -7 14 6 0 13 -4 16 -10z"/>
<path d="M7228 2893 c-27 -19 -48 -39 -48 -44 0 -12 14 -11 27 2 14 14 55 -6
51 -24 -2 -7 2 -13 7 -15 11 -4 37 87 30 106 -6 18 -15 15 -67 -25z m45 -13
c-5 -20 -15 -25 -26 -13 -8 7 11 33 23 33 5 0 6 -9 3 -20z"/>
<path d="M7321 2844 c-32 -44 -36 -69 -7 -45 9 8 27 10 45 6 23 -5 32 -2 44
16 19 26 14 43 -19 58 -14 6 -26 11 -28 11 -1 0 -17 -21 -35 -46z m79 -5 c0
-13 -27 -22 -45 -15 -13 4 -14 10 -5 26 9 16 15 18 30 10 11 -6 20 -15 20 -21z"/>
<path d="M7412 2796 c-32 -44 -33 -69 -1 -40 13 11 22 13 35 6 23 -13 64 5 64
29 0 18 -35 49 -56 49 -6 0 -25 -20 -42 -44z m67 11 c13 -16 5 -27 -21 -27
-18 0 -25 20 -11 33 10 10 19 8 32 -6z"/>
<path d="M4572 2751 c-22 -14 -10 -46 19 -49 34 -4 57 22 39 43 -14 17 -38 19
-58 6z"/>
<path d="M3620 2735 c0 -2 14 -12 31 -20 17 -9 29 -19 26 -21 -3 -3 -23 4 -46
16 -23 11 -41 18 -41 15 0 -8 118 -65 135 -65 31 0 13 21 -45 50 -33 17 -60
28 -60 25z m85 -55 c3 -6 -1 -7 -9 -4 -18 7 -21 14 -7 14 6 0 13 -4 16 -10z"/>
</g>
</svg>
